<?xml version="1.0" encoding="UTF-8" standalone="no"?>
<!-- Created with Sodipodi ("http://www.sodipodi.com/") -->
<svg
   xmlns:a="http://ns.adobe.com/AdobeSVGViewerExtensions/3.0/"
   xmlns:xapMM="http://ns.adobe.com/xap/1.0/mm/"
   xmlns:xapGImg="http://ns.adobe.com/xap/1.0/g/img/"
   xmlns:xap="http://ns.adobe.com/xap/1.0/"
   xmlns:pdf="http://ns.adobe.com/pdf/1.3/"
   xmlns:ns="http://ns.adobe.com/SaveForWeb/1.0/"
   xmlns:x="adobe:ns:meta/"
   xmlns:dc="http://purl.org/dc/elements/1.1/"
   xmlns:cc="http://web.resource.org/cc/"
   xmlns:rdf="http://www.w3.org/1999/02/22-rdf-syntax-ns#"
   xmlns:svg="http://www.w3.org/2000/svg"
   xmlns="http://www.w3.org/2000/svg"
   xmlns:sodipodi="http://sodipodi.sourceforge.net/DTD/sodipodi-0.dtd"
   xmlns:inkscape="http://www.inkscape.org/namespaces/inkscape"
   width="48pt"
   height="48pt"
   viewBox="0 0 256 256"
   overflow="visible"
   enable-background="new 0 0 256 256"
   xml:space="preserve"
   id="svg4090"
   sodipodi:version="0.32"
   sodipodi:docname="Javascript icon.svg"
   inkscape:version="0.44">
  <defs
   id="defs4258" />
  <sodipodi:namedview
   id="base"
   inkscape:zoom="4"
   inkscape:cx="30"
   inkscape:cy="30"
   inkscape:window-width="853"
   inkscape:window-height="573"
   inkscape:window-x="88"
   inkscape:window-y="88"
   inkscape:current-layer="Layer_1" />
  <metadata
   id="metadata4091">
    <ns:sfw>
      <ns:slices>
        <ns:slice
   x="0"
   y="0"
   width="256"
   height="256"
   sliceID="124282720" />
      </ns:slices>
      <ns:sliceSourceBounds
   x="0"
   y="0"
   width="256"
   height="256"
   bottomLeftOrigin="true" />
      <ns:optimizationSettings>
        <ns:targetSettings
   fileFormat="PNG24Format"
   targetSettingsID="0">
          <ns:PNG24Format
   transparency="true"
   includeCaption="false"
   interlaced="false"
   noMatteColor="false"
   matteColor="#FFFFFF"
   filtered="false" />
        </ns:targetSettings>
      </ns:optimizationSettings>
    </ns:sfw>
    <xpacket
   id="xpacket2099">begin='﻿' id='W5M0MpCehiHzreSzNTczkc9d'    </xpacket>
    <x:xmpmeta
   x:xmptk="XMP toolkit 3.0-29, framework 1.6">
      
    <metadata
   id="metadata2262"><rdf:RDF>
        <rdf:Description
   rdf:about="uuid:6d0014fc-14be-4522-a60a-35f180eaacef">
          <pdf:Producer>
Adobe PDF library 6.66</pdf:Producer>
        </rdf:Description>
        <rdf:Description
   rdf:about="uuid:6d0014fc-14be-4522-a60a-35f180eaacef" />
        <rdf:Description
   rdf:about="uuid:6d0014fc-14be-4522-a60a-35f180eaacef" />
        <rdf:Description
   rdf:about="uuid:6d0014fc-14be-4522-a60a-35f180eaacef">
          <xap:CreateDate>
2004-03-28T22:38:02+02:00</xap:CreateDate>
          <xap:ModifyDate>
2004-03-28T20:38:51Z</xap:ModifyDate>
          <xap:CreatorTool>
Illustrator</xap:CreatorTool>
          <xap:MetadataDate>
2004-03-28T22:38:02+02:00</xap:MetadataDate>
          <xap:Thumbnails>
            <rdf:Alt>
              <rdf:li
   rdf:parseType="Resource">
                <xapGImg:format>
JPEG</xapGImg:format>
                <xapGImg:width>
256</xapGImg:width>
                <xapGImg:height>
256</xapGImg:height>
                <xapGImg:image>
/9j/4AAQSkZJRgABAgEASABIAAD/7QAsUGhvdG9zaG9wIDMuMAA4QklNA+0AAAAAABAASAAAAAEA
AQBIAAAAAQAB/+4ADkFkb2JlAGTAAAAAAf/bAIQABgQEBAUEBgUFBgkGBQYJCwgGBggLDAoKCwoK
DBAMDAwMDAwQDA4PEA8ODBMTFBQTExwbGxscHx8fHx8fHx8fHwEHBwcNDA0YEBAYGhURFRofHx8f
Hx8fHx8fHx8fHx8fHx8fHx8fHx8fHx8fHx8fHx8fHx8fHx8fHx8fHx8fHx8f/8AAEQgBAAEAAwER
AAIRAQMRAf/EAaIAAAAHAQEBAQEAAAAAAAAAAAQFAwIGAQAHCAkKCwEAAgIDAQEBAQEAAAAAAAAA
AQACAwQFBgcICQoLEAACAQMDAgQCBgcDBAIGAnMBAgMRBAAFIRIxQVEGE2EicYEUMpGhBxWxQiPB
UtHhMxZi8CRygvElQzRTkqKyY3PCNUQnk6OzNhdUZHTD0uIIJoMJChgZhJRFRqS0VtNVKBry4/PE
1OT0ZXWFlaW1xdXl9WZ2hpamtsbW5vY3R1dnd4eXp7fH1+f3OEhYaHiImKi4yNjo+Ck5SVlpeYmZ
qbnJ2en5KjpKWmp6ipqqusra6voRAAICAQIDBQUEBQYECAMDbQEAAhEDBCESMUEFURNhIgZxgZEy
obHwFMHR4SNCFVJicvEzJDRDghaSUyWiY7LCB3PSNeJEgxdUkwgJChgZJjZFGidkdFU38qOzwygp
0+PzhJSktMTU5PRldYWVpbXF1eX1RlZmdoaWprbG1ub2R1dnd4eXp7fH1+f3OEhYaHiImKi4yNjo
+DlJWWl5iZmpucnZ6fkqOkpaanqKmqq6ytrq+v/aAAwDAQACEQMRAD8A9U4q7FXYq7FXYq7FXYq7
FXYq7FXYq7FXYq7FXYq7FXYq7FXYq7FXYq7FXYq7FXYq7FXYq7FXYq7FXYq7FXYq7FXYqlvmDzFo
3l7TJdT1e5W1tItuTbszHoiKN2Y+AxV4j5g/5ydvTcMnl/SYlgU0Se/LOzDxMcTIF/4M4qk//QzP
nv8A5YNL/wCRVx/2UYq7/oZnz3/ywaX/AMirj/soxV3/AEMz57/5YNL/AORVx/2UYq7/AKGZ89/8
sGl/8irj/soxV3/QzPnv/lg0v/kVcf8AZRirv+hmfPf/ACwaX/yKuP8AsoxV3/QzPnv/AJYNL/5F
XH/ZRirv+hmfPf8AywaX/wAirj/soxV3/QzPnv8A5YNL/wCRVx/2UYq7/oZnz3/ywaX/AMirj/so
xV3/AEMz57/5YNL/AORVx/2UYq7/AKGZ89/8sGl/8irj/soxV3/QzPnv/lg0v/kVcf8AZRirv+hm
fPf/ACwaX/yKuP8AsoxV3/QzPnv/AJYNL/5FXH/ZRirv+hmfPf8AywaX/wAirj/soxV3/QzPnv8A
5YNL/wCRVx/2UYq7/oZnz3/ywaX/AMirj/soxV3/AEMz57/5YNL/AORVx/2UYq7/AKGZ89/8sGl/
8irj/soxV3/QzPnv/lg0v/kVcf8AZRirv+hmfPf/ACwaX/yKuP8AsoxVFad/zk75oS4B1HSbG4t+
6W/qwP8A8E7zj/hcVeyeRfzJ8tec7Vn0yUx3kQBuLCaizJ25AAkMlf2l+mmKsqxV2KuxV2KuxV2K
vm/XDqf5ufmk+j287Q+XtJLqJF3VIY2CSzAHYvM9AvtTwOKvePLfk/y35bs0tdHsYrZVFGlCgyuf
GSQ/Ex+ZxVOK4q6oxVrkMVdyGKu5jFWvUGKu9RffFWvVX3xV3rL74q71l8DirXrp4HFXfWE8DirX
1hPA4q76yngcVd9Zj8D+GKtfWo/A/hirvrcfgfw/rirvrcfgfw/rirX1yLwb8P64q765F4N+H9cV
d9di8G/D+uKtfXovBvw/riqVa/5X8r+abR7TV7GO55CiyMoWZP8AKjkHxKR7HFXzB5n0XXfys8/R
NZXBJgIudOujsJYGJUpIB8ijj+oxV9VeWtfs/MGhWWsWf9xexLKErUoxHxI3up2OKplirsVdirsV
Q+oMy2Fyy/aWJyvzCnFXhP8AziwqvL5nmYcpQLIBz1oxuC2/uVGKvficVaxVrFWicVaJxVrFWsVa
JxVonFWsVaxVrFWicVaxVrFWicVaJxVrFWsVaJxVonFWsVaxVdCSJkp/MP14q8V/5ypRBJ5ZkCjm
wvVZu5CmAgfRyOKsn/5x3vJX8lwWzElQZmSvbjMR/wAbYq9XxV2KuxV2KofUv+Oddf8AGGT/AIic
VeE/84pn/lKP+jD/ALGcVe+nFWsVaJxVQt7uO49XgHHoyNE3NWSrL1K8gKj3G2EhVtnfW93HJJAx
ZY5ZIHJBHxwuUcb+DKcSKVWwK0TirROKtYq1irWKtE4q1irWKtE4q0TirWKtYq0TirROKtYq1irR
OKrof76P/WH68VeLf85WH/lF/wDo/wD+xbFU/wD+cc/+UVg+Vx/yfGKvX8VdirsVdiqH1L/jnXX/
ABhk/wCInFXg/wDziia/4p/6MP8AsZxV78euKsd8x6NqV3eQyWD8IruM2Wp/FxIt2YPzT/LA5qP9
b2ycZAc0IS38v6imv/WGhT0hcyyyXvOpktHhKR2pj8EYjrttUbnCZCldNoF+ukT2kdurxHUWuPqQ
ZUWW19Svpj9lQR+yfljxC/gqY+VdOudP0t7e4iWBzcXEixI/qKqSTM6ANsT8J7iuRmbKU3JyKtE4
q1irWKtYq0TirWKtYq0TirROKtYq1irROKtE4q1irWKtE4q0Tiq6H++j/wBYfrxV4r/zlcaf4W/6
P/8AsWxVkH/OOX/KKW/yuP8Ak+MVewYq7FXYq7FUPqX/ABzrr/jDJ/xE4q8G/wCcTzX/ABT/ANGH
/Yzir349cVSjWfMMemLdFoTJ9VtGvKcgvIK3Hj0P35KMbVSPmJl1yXTJoEgRFZ4pZpSjSqsYctGp
TgyitD+8qKbjDw7WqBt/OjTRSgWY+siaCC3RZG9OQ3IJRvUeNCFopqQp9q4TBFqE/n4xxxhdNlmu
eU4mt4mMhVbeb0WKlUIYk1IGw269Kvh+a2ysMCAR0O+VpY3ba1eRadJrFwxn+t3C29jp6cFRKzmG
MF6V5N1csdugGWGO9IWatr+s6fOs0lksgjs7i4ubaOYcFWF0+P1GRWPw1oOPfERBVFDzKra7Dpoh
DRTkolwrsSriH1uLrw4L8IP7ZPtg4drSqaJrN5qca3DWP1ezkj5xTGVXYsGKlSgAp0qDXBKNKs8w
Xeu25tv0XAJg7/v/AIeXECnXcbb9t8YgdVUB5mm/Sos2s6W4uvqT3fqCnq/V/rAolK0p1qfv7Hg2
VBr52kaC4YWIeWEw+mI5SY5FnD8WEjRpsPSNaAjwJw+Gi1s/npkgUppsslyxkP1YNyYRxrG1aor/
ABETLt0r3x8PzW0xF3dw65bxmVpbLUonkjidQrQvEEOxABKsG3Dbg5GtkpvkVaJxVonFWsVaxVon
FWicVaxVdB/fx/6w/XirxX/nLA0/wt/0f/8AYtirIP8AnHD/AJRO3+Vx/wAnxir2HFXYq7FXYqh9
S/4511/xhk/4icVeCf8AOJh/5Sr/AKMP+xnFXv7Hc4qkfmOx8uTehJq9r9ZeUm1t0VJHZi4LlQsf
gELV7Urk4k9FRbaHpTXT3TwB5pAwYuzMP3g4vRSSq8l2NBkeIqgbjyjpBs5be0hSBpQgZ2DSgiI1
SoLDp0BrUdskJlV1r5V0iCwgs3j9T6uZWSVaxMPWcyOB6RSikn7PSgHhgMzapuAFAA6DYZFUsj0C
wRbuFuUtldv6j2UhDQo5bmzRinJeT/F1pXcUyXEVXjRNL9BoDDyjaKS3YO7sTFMayKWZifip44OI
qs/w/owvFvFtlFyjiRZAWBDheNRQ03XY+PfDxFUVa2tvaW6W9unpwxiiIKmgrXvgJtVXAqCbSdOZ
y7QKWM31kk1NZjH6PKlf99/DTph4iqFi8r6BD/dWir8IXZn3C/ZB+Lfj0Xw7YeMqqSaBpDoFa3Ao
SysrOrAlVQ0ZSGFVRQd96Y8RVdDpUEd+18Xklm4elCrkFIo9qrGoApyKgkmpPjg4tqVGE4FaJxVr
FWsVaJxVonFWsVaxVdAf38f+sv68VeKf85Zn/lFf+j//ALFsVZD/AM43/wDKJW/yuP8Ak/ir2LFX
Yq7FXYqh9S/4511/xhk/4icVeBf84lH/AJSr/ow/7GcVfQDdTiqR+YI5UvdJvqSy29rct68KIZFU
PDIomKoC9VYhfABjXxE49VTonIK0TirWKtYq1irROKtYq1irROKtE4q1irWKtE4q0TirWKtYq0Ti
rROKtYq1irROKr4P7+P/AFl/XirxL/nLU/8AKK/9H/8A2LYqyL/nG3/lEbb5XP8AyfxV7HirsVdi
rsVQ+pf8c66/4wyf8ROKvAf+cSDX/Ff/AG7/APsZxV9At9o/PFVpOKqN1OLe2mnpyESM5XpXiK0x
CsdXzlKLOWebTmSVY7OeGBZVdnjvZfSTegVWDdifp8LOBFoi91LVkSwe4tvqfq3iQyrHMrsQzlV/
3WQUcbncEYAAlYvme4fVvqKWB9M3E1olw0oAaWKEzU4hSaELQnt748G1oQ8mv683lnUNR+qQxT28
dwYnWUsB6JkUtxKfs8Olfi9sPCLpU30eK/is+N8zNPyJq8iykig7qkQ+imQlXRKGW5u7rzDNbpOY
bTT442kiVVJmknD05MQaKgXt1OGtlQgl1rSo7c3lyt59YmtLYlhTizkrK+wX7RIph2KFl55pmtYR
K1ujRG5uLd7h3aOKMQycF5sEloX9wF26jCIWqtP5lWHW109oVaFiy/WEdmKssBnIdeHEfCpoOdfb
BwbWlBHzqyQmWexKepBBcWqJJ6hdbmQRxhgq/Cd6nr7Vw+Gi0y0/WLu+0+C6jsHSSSb0p4JG4GNQ
xVpAXVeQpuNhXImNFK63u5otYnsbhyyzKLmyY0+yKLLH78Go3yb2xI2tUts9c1DWITBDAdOmntob
y1mLrJWOR96gL8Oy7ddj2O2SMQEKmoPq2nael6916z28zGeHivCWGWeir05B0Rhxp3HfAKJpU2Mt
x9cEXo/6N6ZY3PIfb5U4cOvTeuRSqk4FaxVrFWicVaJxVfB/fx/66/rxV4l/zluaf4U/7eH/AGLY
qyP/AJxr/wCUPtvlc/8AJ/FXseKuxV2KuxVD6l/xzrr/AIwyf8ROKvn/AP5xGNf8V/8Abv8A+xnF
X0E32j88VWk4qo3UIntpYCeIlRkJHUchTEKl1j5Z0izsRaLAGU+iZXJPJ2tyGjJNf2WWoHTJGZJV
E6j9TIthdRtIPXj9HirNxlBqjHj0A8TtgCtLpenrMsywgSrM1wrVO0siGNm690NMbKoRrHQYLC/n
oosZ0mN6Vd2jK/F63wgkL+1y4jrhs2qMsrxLyH1kSSNSaATI0bH34sAaYCKVAXY01NftXE8sWpSx
lTDDVlkhWpHrjiwCqxPFjTfavbCLpVCfXvLd/ZMtzJW2cRORIrofjBljYUAYUEZav7NK4eEgqqpp
Xl+9gMKQiSC2d4WUF1QtWsituBJVvtVrvWu9cHEQqq2g6Q159dNsoueYkEgLCjAcagA03UUPiOuP
EVQGmeUdOs/rHqrHOLhEjaNYljQLGxddgSa1I3r2FKUwmZKKTA6NpvoQwNEXjgmW4iDu7ESoaq3J
iSae5yPEUofUXs5dTs7dvVF5Ay3EbxIzBVbkhDsAVCuKg1wjkqKttOsrZo2giCNFCttGQSaRJ9lN
z2wElVO+02G9lgaeSQwwMJPqwIEbupBUyClW4kVArTEGlQdydOg8wxXDeq9+9sYFijRnVYmlBLvx
Bp8QA3OSF0qMfUIVS4b05W+rMEdVjdmJIB+AAfEPi6jI0q6zvIL20iu7duUE6B42IIqrCo2OJFKo
SaxYpfCxLN9YLrGFCsRydGkXelPsxsceE1aownArWKr7f/eiL/XX9eKvEf8AnLk0/wAKf9vD/sWx
Vkn/ADjV/wAodbfK5/6iMVeyYq7FXYq7FUPqX/HOuv8AjDJ/xE4q+ff+cQz/AMpZ/wBu/wD7GcVf
Qbn4j88VW4qhdT5HTbvjUsYZKU614nCOasM07y5qU2iyBLc2q3UWnAwiY85GhmEk87NUFWZDQb12
+WWmQv5oT298u2scdium2qRm3vI52YU5Khk5y0Zt6Gv2RkBLvSgY/LU/6cF/LFyDXtw0rM9R9Vkt
mjVQtaUMh3AGHj2pCmnln/cBq2m/o2NLiRLgW0wZOMrM0hgpvVePIfaG2Hj3BtWS2llaWcXo2sSw
xVLcEFBU98rJtKWoJrTzLcSSQyPBqEUKQ3CKWWNoOfJJKfZB51Unate+S5hXa3o0N5ZC1htowZGV
DKAF9JOLKXAFORCMyhem++1cEZUVY9ceXtfk0u1gkt457m0Zhbc/SaABkQN6qNSoMgYq6/GBSu5O
WCQtDNQTQV696ZSlJNU0vUTpk8KTvqjStGDDdrbhQiuC5UJHEpanTntkwRfcqp5Ys7yy0hLS7ThJ
DJKF+JWBR5C6U4gDZW40oOnSmCZsq00yxeZW9RXAntYkjYI7KWWSQkFgCo2Pc49FU9S0jUpNMube
O/mupZeFFn9GMcVcM6BoYoyOagrvXCJC1RelQpDaemlkunqGNLdShAr3+D4d8jJUC2hW7+ZG1F7Z
GT0E4ymnL11kJ5U61C03yXFtSonSrD6nLqCrEsNvLcCS3RAAoT0IkNFHT40bBI3Sseu/LWpz6HpF
m4YraQGO6t4njDeoVUKyl6pVCD32rUZMTFlDJ7a2jSKEyIGuEVOUjBS/JU41LAdaEiuVkpU7K8nu
JLtZbcwJbzGKJySfVUKDzFQu1Wp36YkKisCr7c/6RF/rr+vFXiH/ADl4f+UT/wC3h/2LYqyX/nGj
/lDbX5XP/URir2XFXYq7FXYqh9S/4511/wAYZP8AiJxV8+f84gn/AJSz/t3/APYzir6Df7R+ZxVI
PMHmaXSpmSOyN0sVs13O4kWPjEjBW2INTvsMnGFqoaj5wWyvbmBrYSxQRTyCSORiS9vF6zI/7vgp
I8HJ8RhELRaF/wAecRMs2nvHKhVIU9TnzdpWiI+BWIAK1rQn26VfDW0RJrV9JYWGtIJLWJpo7e80
2ZRuJZhByBKq4ZS3IdiO2PCLpU79W5+umL0P9G9MOLnmPt8qcOHXpvXIJVicCtE4q1irWKtE4q0T
irWKtYq0TirROKtYq1irROKtE4q1irWKtE4qvt/96Iv9df14q8Q/5y+P/KJ/9vD/ALFsVZL/AM4z
/wDKGWvyuf8AqIxV7NirsVdirsVQ+pf8c66/4wyf8ROKvnr/AJw/Nf8AFv8A27/+xrFX0I/22+Zx
VKdaTQkRpdUChbiJ7ZiefxR8TK6UX2QnJRvoqhcaF5dn1CWKWz5XEyPNLIBIEIkBjf4gQoLg/EB1
w8RpVO0tPLl9NcRQ2jOqlkknKSCMtHMWYJIaDkstTVe/TEkhV9rp2l3Zhkgkla2sJ5VW2ZmMZuIp
CrO/OruUcHjVqd8SSFdI2mxeZvW/fSajJaxwMkaMyRwmR2VnYCi8mr1PbBvSprJLHGAZHVAxCgsQ
Ksxoo37k9MiqlcXlpblBcTxwmQ8YxIyrybwWpFThAVTk1PTkuPq0l1ClxUD0WkUPUio+Emu+NFXW
2oWF2WFrcxTlKcxE6vSvSvEnEghVcnArWKtYq0TirROKtYq1irROKtE4q1irWKtE4q1iq+2/3oi/
11/Xirw//nMA0/wl/wBvD/sVxVk3/OMv/KF2nyuf+ojFXs+KuxV2KuxVD6l/xzrr/jDJ/wAROKvn
j/nD01/xb/27v+xrFX0K/wBtvmcVYj5r8r3ms6tZyLwFrEqrIzKjEfvAzdTU7LT6fnlkJ0EJnHo6
x65NOsCLZTWawyUCjnIHNeSjr8FN8jxbJSiPyrJb6IIYbOM3Bu3kuoAyr61t9Zd1jLdKcCux+WT4
90JdN5Q1iS2hjeNo4UkumW1tpU5RNLcepFIjyAVou1dmH0kYeMLTIbXQYV8xXepS2yfvIrf0JTQt
6qGX1Tt0PxLkDLakojzDa3VxZQi2i9aWG6tpzGGVSVhmWRgCxArRcESqUarpmq39zPdCwU/W7F7A
QTSJWJizMJSV5jieW/H4thtkgQEK+kaBeWl/dXE07lKwiOMCErN6VrHEWYsjSKeaHo4xlKwqt5ct
7y3F6tzZm19a4knjPKNqrI1QvwFvs4JlKc5BWsVaJxVonFWsVaxVonFWicVaxVrFWicVaxVrFV9t
/vTF/rr+vFXh3/OYRp/hL/t4/wDYrirKP+cY/wDlCrT5XP8A1EYq9nxV2KuxV2KofUv+Oddf8YZP
+InFXzv/AM4dH/lLv+3d/wBjWKvoWQ/G3zOKrcVUbqf0LaWcjkIkZ+PSvEVpiFY8vnGX6pLPLp7J
IsdpPDAsqszx3svpJvQKrBux+/ws4EWiL3UtVRLF7i3+qereJDIscyuxDOVX/dZBVhudwRgACVi+
Zrh9V+pJYn0zcS2iXDSgBpYoTNTiFJoQtCe3vjwbWhDvruut5bv9R+qwxzQR3BiZZSwHol1LcSn7
PDpX4vbDwi6VNtIivorTheszT8iSzyLKaUHdUiH0UyEq6JQ63F3c+YJbdJjDa2EcbSRKFJmeYPTk
xBoqhe3U4aoKhLhNb07QdTnub315orJmhkAFVljics/2QN2ocIokIR73UWmwxx3D3VyW5UkEEk7b
H9r0IyF67VAwVaUFL5jcah9WS2rbm6Fi1z6gDCYxiQ0jKn4QD1rh4dlV9Ga4WXUreWd7gW1yI4nl
48uLW8MlDxCj7Uh7YJdFU9fluQ+mwwTvbi5uxFK8fHlw9GV6DkGH2kHbGPVURJqltBK1u63DyRLV
nFvMyGi8v70J6Vaf5XXbGlSzTNTu9VCxy3KWzXECXUcNsrerGjcSP3snKN9moaKN8kRSEb5dup7r
QbC5nf1J5oEeRzQVYrUnbIzFEpaktNUOpCZbulnzBa3oK8BE6kA0/wB+FW69sbFKpaXc3qzX9jPJ
9blsyphlIVGdJE5Kr8aLyBBFaYyA5qmFvJNJBG80foysoLxcg3E9xyGxyJVfirWKtYqvtj/pMX+u
v68VeHf85in/AJRH/t4/9iuKso/5xi/5Qm0+V1/1EYq9oxV2KuxV2KofUv8AjnXX/GGT/iJxV86/
84cH/lL/APt3f9jWKvoaT7bfM4qhL/UrKwjWS7lESMWCkgmpVGkOwB/ZQnCBaqlzCJ7eWAniJUZC
R25CmAKl1l5b0izsRaJAGU+iZXJPJ2tyGjJNf2WWoHTJGZJVdLeaZeRxM6tMkd36KURzxuIXK1NO
gVlO52xohVFzo0Oqx26wO976n1smNJHEbTK0PqOw+FeShhvjvSq66Npix3USw0ivQ4uY+T8GEled
FrReXI140wcRVGk4FQUumQtqMeoJJJFOq+nIEI4yoKlVkUg14liVIoRhvalX6haJe2NzZyMVjuYn
hdl6gSKVJFe++INFV1tFNFCElma4cVrKwVSd/BAo/DEqlc3lu3l1oaozKHRhIirGobmI/TqzmtR3
6dhvtkuPalRenae1n9YZ53uJbmX1pJHCqaiNIwAECj7MYyJNqt1TTfrwtyJ3t5LWYTxSIFJ5BGSh
DhhSjnEGlRaghQCeRAoWPc+O2BUtTQbG2Lyaev1Kdxx9WIAhV5Biqo/JFBI7DJcR6qiNNsY7Cwt7
KNi0dvGsas1KkKKb0wE2bVXNSDQ0PY4FQNtpMFvazwh3lkuuRuLiQhpHZl41JAA2UUAAoMkZKrWN
pDZWUFpDX0reNY0r1oopU++AmyqtgVrFWicVVLb/AHpi/wBdf14q8M/5zHP/ACiH/bx/7FcVZT/z
jB/yg9n8rr/qJxV7TirsVdirsVQ+pf8AHOuv+MMn/ETir5z/AOcNjX/F/wD27v8AsaxV9ESf3jfM
4qxHzV5YvNZ1a0kXgLWJVWRmVWI/eBj1NTstPp+eWQnQQov5a1JNbubsepIGEq28ivEqCKSHgsbg
gSfC3QDbv44eMUqlH5W1C3t3jitw8MkentdWxl/v3h9T6wpZietV67ECnTHjH3qibPy7dRWForWs
cV1BqLXHwsH4W7XDScVkNGI4n6fDAZb/AAVHwaFAvmO91GS2TjJHb+hLsW9VTL6h8Rsy4DLakpyT
kFaxVrFWicVaJxVrFWsVaJxVonFWsVaxVonFWsVaxVrFWicVaxVUtf8AemL/AF1/Xirwv/nMk0/w
h/28f+xXFWVf84v/APKDWfyuv+onFXtWKuxV2KuxVD6l/wAc66/4wyf8ROKvnL/nDQ1/xh/27v8A
saxV9ESf3jfM/rxVYTiqjcziC2lnI5CJGfj0rxFaYhWPr5wl+qSzy6eySLHaTQwLKrM8d5L6Sb0C
qwPY/flnAi1e91HVUSxae3+qepeJDIscyuxDOVX/AHWQVYbncEYAAlavmW4fVPqSWJ9Mzy2qXDSg
BpYoTNTiFJoQtK9vfHg2tCHfXdcby3f6h9VhjmgjuDEyylh+5LqW4lP2eHT9r2w8IulTbSIr6K04
3rM0/ImryLIaUHdUiH0UyEq6JQy3F3c6/LbpMYbWwjjaSJQpMzzBqcmINFUL26nDWyoW4TWtO0LU
p7i99eeKyZoZABVZY4nLP9kDdqHCKJCEe9zFpsMcc73NyW5UkEMk7bH9r0IyF67VGCrSgj5ikGpN
am0It1uhZG55gn1WiEq0SlaUO+/370PBsqJ1vWYtJtUuZULxF+D0NCPgZhTxqVC098EY2qQN5wu5
boXNnatNbR2k8sluXVKmIQOzFiDQp6jR0Fd/wn4fei00bzA/6VisUt1dJiUWZXJKyegZwsg4cVqF
P7de9KZHh2tK3S7zU9VtrkXKizEc8sSTW8gZv3UpSlHQj9nc9/AYyACojy7dT3WhWFxO/OaWBHkc
0FWIqTtgmKJVa5uJNeMQnkSCG3jl9FePFmZ3U8qgnoo6HHorp9bt0s7q5jimb6qhdkkhlg5U7K0q
ID07YiO6oXULjU2shdSB7CWGeNFiR0kWSN5I1q/w+DEUH44QBaE5JyCWsVaxVUtf96of9df14q8L
/wCcyzT/AAf/ANvH/sVxVlX/ADi7/wAoLZ/K6/6icVe14q7FXYq7FUPqX/HOuv8AjDJ/xE4q+cP+
cMTX/GH/AG7f+xrFX0TKf3jfM/rxVA3+p29j6XqrI7TsUiSJGkYkKWOygnoMIFqrXMInt5YSaCVG
QkduQpgCpdZeXNJtLEWiQhlPomVyTydoCGjJNf2WWoHTJGZJVU1e40+GO3N4jSkzKbaKNWd2mQF1
4qm+wUnwxiCqmkOli7Vlt3FwOV+rcJNnkX0mPhzKmnH8Md1UdNt9Evbe+FtC6xXDyQ3sEnqIOTby
D02I419TfiBhJIVNicgqUTix/wAQRFGnS/WJfW9JSYniYuEEx4suzK3HockLpUXdRW2padc2yyho
bmOWBpIyGpUGN6HcVU1HzwDYqqW0U0UISaZrhxWsrBVJ+hAoxKoCDQrCC/uNRZPVuZZTMrtU8D6a
x0UdOineldzhMjVKtmvdM1CymMtvNNHbzIssBhk9QSLwlX4Kcv2lONEFUHJN5XtbOK6MfGC8tp5E
Kq5LQTcZZthv8VQcl6ihWSy8vzatKohA1G3KTEHmh+EBVkStAwoApK/I4LNeSUSdKhjMz2btazTt
ykkQ8hUnkxCPyQFu+2DiVU06yjsLC3so2Lpbosas1KkKKb0wE2bVTksGOpLfJO8Z9NYpIgFKuqsz
CpIJH2uxxvalV7iCK4heGZecUg4up7g/LACqG1Gwa9WOP13iiV1eRECnnwZXUEsCRQr2wg0qLwK1
irWKqlqf9Kh/11/WMVeFf85nGn+D/wDt5f8AYrirK/8AnFz/AJQSy+V1/wBROKvbMVdirsVdiqH1
L/jnXX/GGT/iJxV83/8AOF5r/jH/ALdv/Y1ir6Jl/vH+Z/XiqTa3MsF7pdxIrmGKaT1GRHk48oHU
VCBj1OSj1VVutPu5PrDLfTMssbqlqwhEQLKQPiWIS7H/AC8QVS/y1ZavBPNJqEIhU2tpbxASCQkw
CQOTToTyGGZHRCrrWhw6hqWmTyW6TRwSP9ZL0/uzDIFG/X94wxjKgUr4tL9HX/rcEKR2zWpikZAF
rJ6ikVA3PwjrgvZUvvNF1ObTtSgiPB7i/Fwqgr+8hBjLLU8gOQU7MKHodjkhIWEJj5esZLDSYbVx
Ivpl+KzMjuFLEgVT4aCu3hkZGylRMkaeY7mOZWK3VpbJGeDsjFJLguCwBUUDDqe+HoqStpP6M0W9
jFr9WuYZXns7uOjeq4naWBAqEv0IQgjpXJcVlChf6LfSy20D2/1q7uLO6lmJkKJHczSRkPXoRGTR
R4Co3GESCoyPQtSi8wrfzvJMsbKY50aMKI/REbI6kc/tAmi7d+uDiFUqP02+gQ6reuJFt5LtTGxi
k5MPq0CVCcedOSkdMiRyCVXQ7VDoGmR3EILpaQoySLuv7tQykEbdN8EjuVU5BLdeYbeRIXSGwjlW
Wd1Kq7TcKIhP2qcakjbDyCqukMCb+lo1r/pcgqzM3rUC/vRyAoG6UG22CSo/Iq1irROKtYq1irWK
tE4qqWv+9UP+uv6xirwr/nNA0/wd/wBvL/sVxVln/OLX/KB2Xyuv+ok4q9sxV2KuxV2KofUv+Odd
f8YZP+InFXzb/wA4Wmv+Mf8At2/9jWKvoqX+9f8A1j+vFVhOKtE4q1irWKtE4q0TirWKtYq0TirR
OKtYq1irROKtYq1irWKoPVNW07SrN7zULhLa2j+1I57+AHUn2G+EBXm+r/nrp0UjR6Vp0l0BsJ53
ESn3CAOxHzpkxjRaTf8AK9te9Sv6OteH8tZK0+fL+GHwwtpzpH556bM6x6rYSWgNAZ4W9ZfmVIRg
PlXAca29G0/U7DUrRLywnS4tpBVJUNR8j4EdwcrISiMVVLX/AHqh/wBdf1jFXhP/ADmkaf4O/wC3
l/2K4qy3/nFj/lArH5XX/UScVe24q7FXYq7FUPqX/HOuv+MMn/ETir5r/wCcKz/ymX/bt/7G8VfR
cp/ev/rH9eKrCcVaxVrFWicVaJxVrFWsVaJxVonFWsVaxVonFWsVaxVrFUHq2qWml6dcahePwtrZ
C8jd9ugHuTsMICvm3zd5u1PzLqbXd2xWBSRa2oPwRp4DxY/tN3+WXxjSFPy75T17zDM0emWxlVCB
LOxCxJX+Zj+ob4kgKy1/yO81LDzW6sml7xB5B9zGPrkfEC0wjWdD1XRr1rPUrdre4AqA1CGX+ZWF
VYe4yQNqm/kXzld+WtXSTmzadOwW+t+oKdOYH8y9R92CUbV9GRyxyxrLGweNwGRxuCCKgjKEq1p/
vXD/AMZF/WMVeEf85qH/AJQ3/t5f9imKsu/5xX/5QGx+V1/1FHFXt2KuxV2KuxVD6l/xzrr/AIwy
f8ROKvmn/nCg1/xl/wBu3/sbxV9GTH96/wDrH9eKrMVaxVonFWicVaxVrFWicVaJxVrFWsVaJxVr
FWsVaxVonFXlf566y8Vhp+kRtQXLtcTgdeMdAgPsWYn6MsxhBeRafZTX1/b2UArNdSpDHXpydgo/
XlpV9QaJo1lo2l2+m2ScYLdQte7N+07f5THc5jk2lGk4FYv+YXlRfMWgSQQxq2owESWTkgUao5Ly
PZl/Gnhkomirz/TPyN1eWjalqENsvUpCrTN8jX01H45M5EU9Y0XTBpek2unCZ51tYxEsslORVdhW
ngNsrJtKY2h/0uH/AIyL+sYFeD/85rmn+Df+3l/2KYqy/wD5xV/8l/Y/K7/6ijir2/FXYq7FXYqh
9S/4511/xhk/4icVfNH/ADhMa/4z/wC3b/2N4q+jZv71/wDWP68VU8VaJxVonFWsVaxVonFWicVa
xVrFWicVaxVrFWsVaJxVrFXhP53yu/m6BCfhjs4wo+ckhP68ux8kFIvy3iSXzxpCuKgTFh80RmH4
jDLkr6QJyhLWKtYq1irROKqtp/vXB/xkX/iQxV4N/wA5smn+DP8At5f9imKsv/5xU/8AJfWHyu/+
oo4q9wxV2KuxV2KofUv+Oddf8YZP+InFXzN/zhIf+Uz/AO3Z/wBjeKvo6b++f/WP68VUycVaJxVr
FWsVaJxVonFWsVaxVonFWsVaxVrFWicVaxVrFXhf54QOnmy3lP2JbNOJ91kcEfqy7HyQWO/l9dLb
edNIkbobhY/plBjH4thlyV9J5QlrFVC7u7e0tZrq5cR28CNJLIeiqoqTt7YqoadrOk6nH6mn3kN0
tKn0nViPmAaj6cJCovAqrZ/71wf8ZF/4kMVeC/8AObZ/5Qz/ALef/YpirMP+cUv/ACXth8rv/qKO
KvccVdirsVdiqH1L/jnXX/GGT/iJxV8y/wDOER/5TT/t2f8AY3ir6OnP75/9Y/rxVTJxVrFWsVaJ
xVonFWsVaxVonFWsVaxVrFWicVaJpiqh9ctP9/x/8Ev9cVXpIki8kYMvYg1H4Yq84/OzQXu9FttV
hXk+nuVmoN/SloK/7FlH35ZjKC8VilkhlSWJikkbB0YdQymoOWq+kfJvm+w8yaVHcROq3qKBeWtf
iR+hNP5W6qf45RKNJT7Iq80/N/zjbW+mNoFpKHvLoj63wNfTiBrxanRnIG3h88shHqgvHIJZ4pVe
B2SYH4GjJDV9iN8tV9M+W7S+tNBsbe/mee9SFfrEsjF3LndgWNSaE0zHPNKb2f8AvZB/xkX/AIkM
CvBf+c3T/wAoX/28/wDsUxVmP/OKH/kvLD5Xf/UUcVe44q7FXYq7FUPqX/HOuv8AjDJ/xE4q+Y/+
cHzX/Gn/AG7P+xvFX0fOf30n+sf14qp4q1irROKtE4q1irWKtE4q1irWKtYq0TirWKqF5/vJP/xj
b/iJxV8nZkofQX5Rf8oLZ/8AGSf/AJOtlM+aQy64ghuIJIJ0EkMylJI2FQysKEEe4yCvAPPn5d6h
5duXubZGuNGdqxTirGIH9iWg29m6H57ZfGVoYpaXl3ZzrcWkz286fZliYow+RWhySpzL5+85Sw+i
+r3HDp8LcW3/AMpaN+ODhCpCzMzFmJZmNWY7kk9zhV6Z+V/5e3M13DrurQmO1hIeyt5BRpH6rIQf
2V6jxPt1rnLor2HKkqtmf9Mg/wCMif8AEhirwT/nOA0/wX/28/8AsUxVmX/OJ/8A5LvT/ld/9RRx
V7lirsVdirsVQ+pf8c66/wCMMn/ETir5g/5wgkVJ/Olu54zkacwjOzUQ3Qbb2LCuKvpG4qJpK/zH
9eKqeKtE4q0TirWKtYq0TirWKtYq1irROKtYq1iqyRFkRkb7LAgj2O2KsN/5VF5F/wCWOT/kfL/z
Vk+MrTJNF0XT9F09NP09DHaxliiFixqxLHdiT1ORJtUbgVa6q6lWAZWFGU7gg9jirEdW/KzyZqLt
J9UNnK27Pat6Y/4Ahox9C5ITKpQPyQ8sByTeXpTsvKIH6T6f8Ml4hRSe6N+XHlHSZFmhshPcJus1
wTKQR3Cn4AfcLkTIlLJcirROKq1iCbyAAVPNT9xrirwD/nOGaMy+TIgwMiLqTsncKxtQp+nicVZt
/wA4nhh+XWn1BB43Z38DdEjFXuWKuxV2KuxVbJGskbRt9lwVb5EUxV8Y6ze63+RH543GtRWzT+Xt
WaQywLRVltpnDyxpXYPDJRk9qdicVfVPlPzx5J876fHf+X9UhvA61eFHC3EZ7rLCfjQj3Hy2xVPP
0dF/M34Yq79GxfzN+GKtfoyL+dvwxV36Mi/nb8MVd+i4f52/DFWv0VD/ADt+GKu/RUP87fh/TFWv
0TD/ADt+GKu/RMP87fhirv0RB/O34f0xVr9Dwfzt+H9MVd+h4P52/D+mKu/Q0H87fh/TFWv0LB/O
34f0xV36Fg/34/4f0xVr9CW/+/H/AA/pirv0Hb/78f8AD+mKtfoO3/34/wCH9MVd+grf/fj/AIf0
xV36Ct/9+P8Ah/TFWv0Db/78f8P6Yq79AW3+/H/D+mKpN5n84eRPIlhLqGvanDacVJSKRw1xJ4LF
CvxuT7D57Yq+IvzF87a9+cH5kLcWtu0ccvG00myJr6NshLcpCNqmrO5+joBir7H/ACe8uR6FoVtY
wD9zaW6RBiKFiafEfduFT88VehYq7FXYq7FXYqxP8xvy38v+etDk0zVYlL0rBPSrI46Ed/uxV8j+
b/8AnFvzbpN66WEyywEn0zMGK8faSMNX6UGKsd/6F88/eNr/AMFP/wBUsVd/0L55+8bX/gp/+qWK
u/6F88/eNr/wU/8A1SxV3/Qvnn7xtf8Agp/+qWKu/wChfPP3ja/8FP8A9UsVd/0L55+8bX/gp/8A
qlirv+hfPP3ja/8ABT/9UsVd/wBC+efvG1/4Kf8A6pYq7/oXzz942v8AwU//AFSxV3/Qvnn7xtf+
Cn/6pYq7/oXzz942v/BT/wDVLFXf9C+efvG1/wCCn/6pYq7/AKF88/eNr/wU/wD1SxV3/Qvnn7xt
f+Cn/wCqWKu/6F88/eNr/wAFP/1SxV3/AEL55+8bX/gp/wDqlirv+hfPP3ja/wDBT/8AVLFXf9C+
efvG1/4Kf/qlirv+hfPP3ja/8FP/ANUsVd/0L55+8bX/AIKf/qlirv8AoXzz942v/BT/APVLFXf9
C+efvG1/4Kf/AKpYqi9M/wCcc/OVxcBLueCCLu8Ylkb/AIFlj/Xir3r8rPyT0zy4P9FhM97IB691
LQuR1oxAoif5I698Ve76bYR2NqsKbnq7eLHviqKxV2KuxV2KuxV2KrZIo5VKSIHQ9VYAj8cVQp0b
Syf95k+7FXfobS/+WZPxxV36G0v/AJZk/HFXfobS/wDlmT8cVd+htL/5Zk/HFXfobS/+WZPxxV36
G0v/AJZk/HFXfobS/wDlmT8cVd+htL/5Zk/HFXfobS/+WZPxxV36G0v/AJZk/HFXfobS/wDlmT8c
Vd+htL/5Zk/HFXfobS/+WZPxxV36G0v/AJZk/HFXfobS/wDlmT8cVd+htL/5Zk/HFXfobS/+WZPx
xV36G0v/AJZk/HFXfobS/wDlmT8cVd+htL/5Zk/HFXfobS/+WZPxxVw0bSwf95k+7FUVHFHEoSNA
iDoqgAfhiq7FXYq7FX//2Q==</xapGImg:image>
              </rdf:li>
            </rdf:Alt>
          </xap:Thumbnails>
        </rdf:Description>
        <rdf:Description
   rdf:about="uuid:6d0014fc-14be-4522-a60a-35f180eaacef">
          <xapMM:DocumentID>
uuid:3eea235a-47cf-4300-b3ac-2c785a0b8ec2</xapMM:DocumentID>
        </rdf:Description>
        <rdf:Description
   rdf:about="uuid:6d0014fc-14be-4522-a60a-35f180eaacef">
          <dc:format>
image/svg+xml</dc:format>
          <dc:title>
            <rdf:Alt>
              <rdf:li
   xml:lang="x-default">
mime.ai</rdf:li>
            </rdf:Alt>
          </dc:title>
        </rdf:Description>
      <cc:Work
   rdf:about=""><dc:format>image/svg+xml</dc:format><dc:type
     rdf:resource="http://purl.org/dc/dcmitype/StillImage" /></cc:Work></rdf:RDF></metadata></x:xmpmeta>
    <xpacket
   id="xpacket2101">end='w'    </xpacket>
  </metadata>
  <g
   id="Layer_1">
    <g
   id="g4093">
      <path
   opacity="0.2"
   d="M44,15.5c-9.374,0-17,7.626-17,17v200c0,9.374,7.626,17,17,17h176c9.375,0,17-7.626,17-17v-200      c0-9.374-7.625-17-17-17H44z"
   id="path4094" />
      <path
   opacity="0.2"
   d="M42,13.5c-9.374,0-17,7.626-17,17v200c0,9.374,7.626,17,17,17h176c9.375,0,17-7.626,17-17v-200      c0-9.374-7.625-17-17-17H42z"
   id="path4095" />
      <path
   opacity="0.2"
   d="M40,12.5c-9.374,0-17,7.626-17,17v200c0,9.374,7.626,17,17,17h176c9.375,0,17-7.626,17-17v-200      c0-9.374-7.625-17-17-17H40z"
   id="path4096" />
      <linearGradient
   id="XMLID_3_"
   gradientUnits="userSpaceOnUse"
   x1="128.9995"
   y1="11"
   x2="128.9995"
   y2="245.0005">
        <stop
   offset="0"
   style="stop-color:#494949"
   id="stop4098" />
        <stop
   offset="1"
   style="stop-color:#000000"
   id="stop4099" />
        <a:midPointStop
   offset="0"
   style="stop-color:#494949"
   id="midPointStop4100" />
        <a:midPointStop
   offset="0.5"
   style="stop-color:#494949"
   id="midPointStop4101" />
        <a:midPointStop
   offset="1"
   style="stop-color:#000000"
   id="midPointStop4102" />
      </linearGradient>
      <path
   fill="url(#XMLID_3_)"
   d="M41,11c-9.374,0-17,7.626-17,17v200c0,9.374,7.626,17,17,17h176c9.375,0,17-7.626,17-17V28      c0-9.374-7.625-17-17-17H41z"
   id="path4103" />
      <path
   fill="#FFFFFF"
   d="M28,228c0,6.627,5.373,12,12,12h176c6.627,0,12-5.373,12-12V28c0-6.627-5.373-12-12-12H40      c-6.627,0-12,5.373-12,12V228z"
   id="path4104" />
      <linearGradient
   id="XMLID_4_"
   gradientUnits="userSpaceOnUse"
   x1="29.0532"
   y1="29.0532"
   x2="226.9471"
   y2="226.9471">
        <stop
   offset="0"
   style="stop-color:#FFFFFF"
   id="stop4106" />
        <stop
   offset="1"
   style="stop-color:#DADADA"
   id="stop4107" />
        <a:midPointStop
   offset="0"
   style="stop-color:#FFFFFF"
   id="midPointStop4108" />
        <a:midPointStop
   offset="0.5"
   style="stop-color:#FFFFFF"
   id="midPointStop4109" />
        <a:midPointStop
   offset="1"
   style="stop-color:#DADADA"
   id="midPointStop4110" />
      </linearGradient>
      <path
   fill="url(#XMLID_4_)"
   d="M40,21c-3.86,0-7,3.14-7,7v200c0,3.859,3.14,7,7,7h176c3.859,0,7-3.141,7-7V28      c0-3.86-3.141-7-7-7H40z"
   id="path4111" />
      <rect
   fill="none"
   width="256"
   height="256"
   id="rect4112" />
    </g>
    
    
    <rect
   id="_x3C_Slice_x3E_"
   fill="none"
   width="256"
   height="256" />
  <path
   style="font-size:17.06666756px;font-style:normal;font-variant:normal;font-weight:normal;font-stretch:normal;text-align:start;line-height:125%;writing-mode:lr-tb;text-anchor:start;font-family:Arial Narrow"
   d="M 41.258333,43.783182 L 42.508333,43.649848 C 42.574998,44.322074 42.726387,44.845685 42.9625,45.220682 C 43.198609,45.595684 43.536108,45.897073 43.975,46.124849 C 44.413885,46.352628 44.908329,46.466517 45.458334,46.466515 C 46.247217,46.466517 46.859716,46.273461 47.295834,45.887349 C 47.731938,45.50124 47.949993,44.999851 47.95,44.383182 C 47.949993,44.022074 47.870826,43.706797 47.7125,43.437348 C 47.55416,43.167909 47.315271,42.947075 46.995834,42.774848 C 46.676383,42.602631 45.986106,42.360965 44.925,42.049848 C 43.980552,41.772077 43.308331,41.491521 42.908333,41.208182 C 42.508332,40.924855 42.197221,40.565133 41.975,40.129015 C 41.752777,39.692912 41.641666,39.199857 41.641667,38.649848 C 41.641666,37.660969 41.96111,36.852637 42.6,36.224848 C 43.238886,35.597082 44.099997,35.283194 45.183334,35.283181 C 45.927773,35.283194 46.579161,35.430416 47.1375,35.724848 C 47.695827,36.019304 48.12916,36.441526 48.4375,36.991515 C 48.745826,37.541525 48.911103,38.188747 48.933334,38.933182 L 47.658334,39.049848 C 47.59166,38.255413 47.35416,37.666525 46.945834,37.283181 C 46.537494,36.899859 45.963884,36.708192 45.225,36.708181 C 44.474996,36.708192 43.902775,36.876248 43.508333,37.212348 C 43.113887,37.548469 42.916664,37.983191 42.916667,38.516515 C 42.916664,39.010968 43.061109,39.394301 43.35,39.666515 C 43.638886,39.938745 44.288885,40.213745 45.3,40.491515 C 46.288884,40.763744 46.983327,40.999855 47.383334,41.199848 C 47.994437,41.510966 48.455548,41.920688 48.766667,42.429015 C 49.07777,42.937353 49.233325,43.544297 49.233334,44.249849 C 49.233325,44.949851 49.069436,45.587351 48.741667,46.162349 C 48.413882,46.73735 47.968049,47.174849 47.404167,47.474849 C 46.840272,47.774849 46.161106,47.924848 45.366667,47.924849 C 44.127774,47.924848 43.140275,47.552627 42.404167,46.808182 C 41.668055,46.063739 41.28611,45.055407 41.258333,43.783182 L 41.258333,43.783182 z M 53.600001,46.366515 L 53.766668,47.691515 C 53.427775,47.780404 53.12222,47.824849 52.850001,47.824849 C 52.422221,47.824849 52.077776,47.740126 51.816667,47.570682 C 51.555555,47.401238 51.376388,47.169294 51.279167,46.874849 C 51.181944,46.580405 51.133333,45.994295 51.133334,45.116515 L 51.133334,40.024848 L 50.233334,40.024848 L 50.233334,38.858182 L 51.133334,38.858182 L 51.133334,36.666515 L 52.358334,35.766515 L 52.358334,38.858182 L 53.600001,38.858182 L 53.600001,40.024848 L 52.358334,40.024848 L 52.358334,45.199849 C 52.358332,45.677628 52.394443,45.985961 52.466667,46.124849 C 52.57222,46.32485 52.769442,46.42485 53.058334,46.424849 C 53.19722,46.42485 53.377775,46.405405 53.600001,46.366515 L 53.600001,46.366515 z M 54.758334,47.708182 L 54.758334,38.858182 L 55.866667,38.858182 L 55.866667,40.199848 C 56.149998,39.577634 56.40972,39.165135 56.645834,38.962348 C 56.881942,38.759579 57.147219,38.658191 57.441667,38.658182 C 57.852774,38.658191 58.272218,38.819302 58.700001,39.141515 L 58.283334,40.533182 C 57.977774,40.316522 57.680552,40.208189 57.391667,40.208182 C 57.130553,40.208189 56.891664,40.299856 56.675,40.483182 C 56.458331,40.666522 56.305553,40.922077 56.216667,41.249848 C 56.061109,41.822076 55.983332,42.430409 55.983334,43.074848 L 55.983334,47.708182 L 54.758334,47.708182 z M 59.425002,37.216515 L 59.425002,35.491515 L 60.650002,35.491515 L 60.650002,37.216515 L 59.425002,37.216515 z M 59.425002,47.708182 L 59.425002,38.858182 L 60.650002,38.858182 L 60.650002,47.708182 L 59.425002,47.708182 z M 62.525002,47.708182 L 62.525002,38.858182 L 63.633335,38.858182 L 63.633335,40.116515 C 63.9,39.627634 64.226388,39.262357 64.612502,39.020682 C 64.99861,38.779024 65.441665,38.658191 65.941669,38.658182 C 66.330553,38.658191 66.690275,38.734579 67.020836,38.887348 C 67.351385,39.040135 67.618052,39.240134 67.820836,39.487348 C 68.023607,39.734578 68.174996,40.055411 68.275002,40.449848 C 68.374996,40.8443 68.424995,41.449855 68.425002,42.266515 L 68.425002,47.708182 L 67.191669,47.708182 L 67.191669,42.324848 C 67.191663,41.674854 67.136108,41.199855 67.025002,40.899848 C 66.913886,40.599855 66.740275,40.367911 66.504169,40.204015 C 66.268053,40.040134 65.994442,39.958189 65.683335,39.958182 C 65.094443,39.958189 64.624999,40.177634 64.275002,40.616515 C 63.925,41.055411 63.75,41.808188 63.750002,42.874848 L 63.750002,47.708182 L 62.525002,47.708182 z M 70.091668,48.441515 L 71.291668,48.658182 C 71.347222,49.130403 71.513888,49.481791 71.791668,49.712349 C 72.069443,49.942902 72.455554,50.05818 72.950001,50.058182 C 73.488886,50.05818 73.918052,49.929013 74.237501,49.670682 C 74.556941,49.412347 74.774996,49.027625 74.891668,48.516515 C 74.963885,48.205404 74.999996,47.549849 75.000001,46.549849 C 74.733329,46.933183 74.43333,47.222071 74.100001,47.416515 C 73.766664,47.61096 73.39722,47.708182 72.991668,47.708182 C 72.124999,47.708182 71.405555,47.341516 70.833335,46.608182 C 70.177778,45.763739 69.850001,44.633185 69.850001,43.216515 C 69.850001,42.266521 69.994445,41.435966 70.283335,40.724848 C 70.572222,40.013745 70.951389,39.491523 71.420835,39.158182 C 71.890277,38.824857 72.416665,38.658191 73.000001,38.658182 C 73.427775,38.658191 73.818053,38.763746 74.170835,38.974848 C 74.523607,39.185968 74.836107,39.502634 75.108335,39.924848 L 75.108335,38.858182 L 76.241668,38.858182 L 76.241668,46.508182 C 76.241661,47.869293 76.13055,48.840125 75.908335,49.420682 C 75.686106,50.001235 75.322218,50.459568 74.816668,50.795682 C 74.311108,51.13179 73.702775,51.299845 72.991668,51.299849 C 72.052776,51.299845 71.330555,51.047068 70.825001,50.541516 C 70.319445,50.035958 70.075001,49.335958 70.091668,48.441515 L 70.091668,48.441515 z M 71.116668,43.124848 C 71.116666,44.285963 71.308333,45.133184 71.691668,45.666515 C 72.074999,46.19985 72.544443,46.466517 73.100001,46.466515 C 73.655553,46.466517 74.127774,46.205406 74.516668,45.683182 C 74.905552,45.160962 75.099996,44.330407 75.100001,43.191515 C 75.099996,42.08041 74.899996,41.254021 74.500001,40.712348 C 74.099997,40.170689 73.613886,39.899856 73.041668,39.899848 C 72.530554,39.899856 72.081943,40.170689 71.695835,40.712348 C 71.309722,41.254021 71.116666,42.058187 71.116668,43.124848 L 71.116668,43.124848 z M 78.516669,47.708182 L 78.516669,45.999849 L 79.916669,45.999849 L 79.916669,47.708182 L 78.516669,47.708182 z M 82.025,51.099849 L 82.025,38.858182 L 83.15,38.858182 L 83.15,40.008182 C 83.427776,39.530412 83.736109,39.185968 84.075,38.974848 C 84.413886,38.763746 84.802774,38.658191 85.241667,38.658182 C 85.813884,38.658191 86.330551,38.827635 86.791667,39.166515 C 87.252772,39.505412 87.623605,40.020689 87.904167,40.712348 C 88.184716,41.404021 88.324993,42.235965 88.325,43.208182 C 88.324993,44.71374 88.009716,45.873462 87.379167,46.687349 C 86.748606,47.501238 86.008329,47.908182 85.158334,47.908182 C 84.780552,47.908182 84.427775,47.81096 84.1,47.616515 C 83.77222,47.422071 83.488887,47.147071 83.25,46.791515 L 83.25,51.099849 L 82.025,51.099849 z M 83.133333,43.333182 C 83.133331,44.47763 83.324998,45.320684 83.708333,45.862349 C 84.091664,46.404017 84.555552,46.67485 85.1,46.674849 C 85.622218,46.67485 86.080551,46.394294 86.475,45.833182 C 86.869439,45.272073 87.066661,44.405407 87.066667,43.233182 C 87.066661,42.077632 86.874995,41.222077 86.491667,40.666515 C 86.108329,40.110967 85.641662,39.833189 85.091667,39.833182 C 84.597219,39.833189 84.147219,40.1318 83.741667,40.729015 C 83.336109,41.326244 83.133331,42.194298 83.133333,43.333182 L 83.133333,43.333182 z M 89.825003,47.708182 L 89.825003,38.858182 L 90.933336,38.858182 L 90.933336,40.199848 C 91.216668,39.577634 91.47639,39.165135 91.712503,38.962348 C 91.948611,38.759579 92.213889,38.658191 92.508337,38.658182 C 92.919444,38.658191 93.338888,38.819302 93.76667,39.141515 L 93.350003,40.533182 C 93.044444,40.316522 92.747222,40.208189 92.458337,40.208182 C 92.197222,40.208189 91.958334,40.299856 91.74167,40.483182 C 91.525001,40.666522 91.372223,40.922077 91.283337,41.249848 C 91.127779,41.822076 91.050001,42.430409 91.050003,43.074848 L 91.050003,47.708182 L 89.825003,47.708182 z M 94.033334,43.283182 C 94.033333,41.75541 94.354166,40.602633 94.995834,39.824848 C 95.637499,39.047079 96.449998,38.658191 97.433334,38.658182 C 98.399996,38.658191 99.208329,39.047079 99.858334,39.824848 C 100.50833,40.602633 100.83333,41.724854 100.83333,43.191515 C 100.83333,44.780407 100.51388,45.963739 99.875001,46.741515 C 99.236106,47.519293 98.422218,47.908182 97.433334,47.908182 C 96.461109,47.908182 95.651387,47.517904 95.004167,46.737349 C 94.356944,45.956795 94.033333,44.805407 94.033334,43.283182 L 94.033334,43.283182 z M 95.291667,43.283182 C 95.291666,44.42763 95.499999,45.279018 95.916667,45.837349 C 96.333331,46.395683 96.849997,46.67485 97.466667,46.674849 C 98.044441,46.67485 98.540274,46.392905 98.954167,45.829015 C 99.368051,45.265129 99.574995,44.416518 99.575001,43.283182 C 99.574995,42.144298 99.366662,41.295688 98.950001,40.737348 C 98.533329,40.179022 98.016663,39.899856 97.400001,39.899848 C 96.816664,39.899856 96.319442,40.180411 95.908334,40.741515 C 95.497221,41.302633 95.291666,42.149854 95.291667,43.283182 L 95.291667,43.283182 z M 105.03334,46.366515 L 105.2,47.691515 C 104.86111,47.780404 104.55556,47.824849 104.28334,47.824849 C 103.85556,47.824849 103.51111,47.740126 103.25,47.570682 C 102.98889,47.401238 102.80972,47.169294 102.7125,46.874849 C 102.61528,46.580405 102.56667,45.994295 102.56667,45.116515 L 102.56667,40.024848 L 101.66667,40.024848 L 101.66667,38.858182 L 102.56667,38.858182 L 102.56667,36.666515 L 103.79167,35.766515 L 103.79167,38.858182 L 105.03334,38.858182 L 105.03334,40.024848 L 103.79167,40.024848 L 103.79167,45.199849 C 103.79167,45.677628 103.82778,45.985961 103.9,46.124849 C 104.00556,46.32485 104.20278,46.42485 104.49167,46.424849 C 104.63056,46.42485 104.81111,46.405405 105.03334,46.366515 L 105.03334,46.366515 z M 105.73334,43.283182 C 105.73334,41.75541 106.05417,40.602633 106.69584,39.824848 C 107.3375,39.047079 108.15,38.658191 109.13334,38.658182 C 110.1,38.658191 110.90833,39.047079 111.55834,39.824848 C 112.20833,40.602633 112.53333,41.724854 112.53334,43.191515 C 112.53333,44.780407 112.21389,45.963739 111.57501,46.741515 C 110.93611,47.519293 110.12222,47.908182 109.13334,47.908182 C 108.16111,47.908182 107.35139,47.517904 106.70417,46.737349 C 106.05695,45.956795 105.73334,44.805407 105.73334,43.283182 L 105.73334,43.283182 z M 106.99167,43.283182 C 106.99167,44.42763 107.2,45.279018 107.61667,45.837349 C 108.03334,46.395683 108.55,46.67485 109.16667,46.674849 C 109.74445,46.67485 110.24028,46.392905 110.65417,45.829015 C 111.06806,45.265129 111.275,44.416518 111.27501,43.283182 C 111.275,42.144298 111.06667,41.295688 110.65001,40.737348 C 110.23333,40.179022 109.71667,39.899856 109.10001,39.899848 C 108.51667,39.899856 108.01945,40.180411 107.60834,40.741515 C 107.19723,41.302633 106.99167,42.149854 106.99167,43.283182 L 106.99167,43.283182 z M 116.73333,46.366515 L 116.9,47.691515 C 116.56111,47.780404 116.25555,47.824849 115.98333,47.824849 C 115.55555,47.824849 115.21111,47.740126 114.95,47.570682 C 114.68889,47.401238 114.50972,47.169294 114.4125,46.874849 C 114.31528,46.580405 114.26667,45.994295 114.26667,45.116515 L 114.26667,40.024848 L 113.36667,40.024848 L 113.36667,38.858182 L 114.26667,38.858182 L 114.26667,36.666515 L 115.49167,35.766515 L 115.49167,38.858182 L 116.73333,38.858182 L 116.73333,40.024848 L 115.49167,40.024848 L 115.49167,45.199849 C 115.49166,45.677628 115.52778,45.985961 115.6,46.124849 C 115.70555,46.32485 115.90278,46.42485 116.19167,46.424849 C 116.33055,46.42485 116.51111,46.405405 116.73333,46.366515 L 116.73333,46.366515 z M 117.85834,51.116516 L 117.725,49.708182 C 117.99722,49.797069 118.23056,49.841513 118.425,49.841515 C 118.68611,49.841513 118.90139,49.788736 119.07084,49.683182 C 119.24028,49.577625 119.38056,49.413736 119.49167,49.191515 C 119.53056,49.113736 119.69167,48.624848 119.975,47.724849 L 117.21667,38.858182 L 118.54167,38.858182 L 120.05834,43.983182 C 120.24722,44.622074 120.42222,45.305407 120.58334,46.033182 C 120.72222,45.344295 120.88889,44.672074 121.08334,44.016515 L 122.63334,38.858182 L 123.86667,38.858182 L 121.10834,47.858182 C 120.74722,49.024847 120.4625,49.804013 120.25417,50.195682 C 120.04583,50.587346 119.80972,50.86929 119.54584,51.041516 C 119.28194,51.213734 118.98333,51.299845 118.65,51.299849 C 118.41667,51.299845 118.15278,51.238734 117.85834,51.116516 L 117.85834,51.116516 z M 124.89167,51.099849 L 124.89167,38.858182 L 126.01667,38.858182 L 126.01667,40.008182 C 126.29444,39.530412 126.60278,39.185968 126.94167,38.974848 C 127.28055,38.763746 127.66944,38.658191 128.10834,38.658182 C 128.68055,38.658191 129.19722,38.827635 129.65834,39.166515 C 130.11944,39.505412 130.49027,40.020689 130.77084,40.712348 C 131.05138,41.404021 131.19166,42.235965 131.19167,43.208182 C 131.19166,44.71374 130.87638,45.873462 130.24584,46.687349 C 129.61527,47.501238 128.875,47.908182 128.025,47.908182 C 127.64722,47.908182 127.29444,47.81096 126.96667,47.616515 C 126.63889,47.422071 126.35556,47.147071 126.11667,46.791515 L 126.11667,51.099849 L 124.89167,51.099849 z M 126,43.333182 C 126,44.47763 126.19167,45.320684 126.575,45.862349 C 126.95833,46.404017 127.42222,46.67485 127.96667,46.674849 C 128.48889,46.67485 128.94722,46.394294 129.34167,45.833182 C 129.73611,45.272073 129.93333,44.405407 129.93334,43.233182 C 129.93333,42.077632 129.74166,41.222077 129.35834,40.666515 C 128.975,40.110967 128.50833,39.833189 127.95834,39.833182 C 127.46389,39.833189 127.01389,40.1318 126.60834,40.729015 C 126.20278,41.326244 126,42.194298 126,43.333182 L 126,43.333182 z M 137.65834,44.858182 L 138.92501,45.049849 C 138.71389,45.994295 138.33194,46.706794 137.77917,47.187349 C 137.22639,47.667904 136.54167,47.908182 135.72501,47.908182 C 134.69722,47.908182 133.86528,47.517904 133.22917,46.737349 C 132.59306,45.956795 132.275,44.830407 132.27501,43.358182 C 132.275,41.83041 132.59584,40.665133 133.23751,39.862348 C 133.87917,39.059579 134.69167,38.658191 135.67501,38.658182 C 136.61389,38.658191 137.39722,39.052635 138.02501,39.841515 C 138.65278,40.630411 138.96666,41.772077 138.96667,43.266515 L 138.95834,43.666515 L 133.54167,43.666515 C 133.59167,44.660963 133.82223,45.410962 134.23334,45.916515 C 134.64445,46.422072 135.14445,46.67485 135.73334,46.674849 C 136.65556,46.67485 137.29722,46.069295 137.65834,44.858182 L 137.65834,44.858182 z M 133.61667,42.433182 L 137.66667,42.433182 C 137.61111,41.666521 137.44722,41.094299 137.17501,40.716515 C 136.78056,40.166523 136.27778,39.891523 135.66667,39.891515 C 135.11667,39.891523 134.64722,40.120689 134.25834,40.579015 C 133.86945,41.037355 133.65556,41.65541 133.61667,42.433182 L 133.61667,42.433182 z M 140.88333,47.708182 L 140.88333,45.999849 L 142.28333,45.999849 L 142.28333,47.708182 L 140.88333,47.708182 z M 147.13334,46.366515 L 147.3,47.691515 C 146.96111,47.780404 146.65555,47.824849 146.38334,47.824849 C 145.95556,47.824849 145.61111,47.740126 145.35,47.570682 C 145.08889,47.401238 144.90972,47.169294 144.8125,46.874849 C 144.71528,46.580405 144.66667,45.994295 144.66667,45.116515 L 144.66667,40.024848 L 143.76667,40.024848 L 143.76667,38.858182 L 144.66667,38.858182 L 144.66667,36.666515 L 145.89167,35.766515 L 145.89167,38.858182 L 147.13334,38.858182 L 147.13334,40.024848 L 145.89167,40.024848 L 145.89167,45.199849 C 145.89167,45.677628 145.92778,45.985961 146,46.124849 C 146.10556,46.32485 146.30278,46.42485 146.59167,46.424849 C 146.73055,46.42485 146.91111,46.405405 147.13334,46.366515 L 147.13334,46.366515 z M 148.29167,47.708182 L 148.29167,38.858182 L 149.4,38.858182 L 149.4,40.199848 C 149.68333,39.577634 149.94306,39.165135 150.17917,38.962348 C 150.41528,38.759579 150.68056,38.658191 150.975,38.658182 C 151.38611,38.658191 151.80555,38.819302 152.23334,39.141515 L 151.81667,40.533182 C 151.51111,40.316522 151.21389,40.208189 150.925,40.208182 C 150.66389,40.208189 150.425,40.299856 150.20834,40.483182 C 149.99167,40.666522 149.83889,40.922077 149.75,41.249848 C 149.59445,41.822076 149.51667,42.430409 149.51667,43.074848 L 149.51667,47.708182 L 148.29167,47.708182 z M 152.95833,37.216515 L 152.95833,35.491515 L 154.18333,35.491515 L 154.18333,37.216515 L 152.95833,37.216515 z M 152.95833,47.708182 L 152.95833,38.858182 L 154.18333,38.858182 L 154.18333,47.708182 L 152.95833,47.708182 z M 156.07501,47.708182 L 156.07501,38.858182 L 157.17501,38.858182 L 157.17501,40.099848 C 157.41945,39.638745 157.73334,39.28319 158.11667,39.033182 C 158.5,38.78319 158.91945,38.658191 159.37501,38.658182 C 159.88611,38.658191 160.31806,38.790135 160.67084,39.054015 C 161.02361,39.317912 161.275,39.702634 161.42501,40.208182 C 161.71389,39.691523 162.04583,39.304023 162.42084,39.045682 C 162.79583,38.787357 163.21111,38.658191 163.66667,38.658182 C 164.36111,38.658191 164.90833,38.894301 165.30834,39.366515 C 165.70833,39.838745 165.90833,40.5943 165.90834,41.633182 L 165.90834,47.708182 L 164.68334,47.708182 L 164.68334,42.133182 C 164.68333,41.499855 164.6375,41.051244 164.54584,40.787348 C 164.45416,40.523467 164.30555,40.3193 164.10001,40.174848 C 163.89444,40.030412 163.66389,39.958189 163.40834,39.958182 C 162.88056,39.958189 162.45,40.167911 162.11667,40.587348 C 161.78333,41.006799 161.61667,41.666521 161.61667,42.566515 L 161.61667,47.708182 L 160.38334,47.708182 L 160.38334,41.958182 C 160.38334,41.224855 160.27084,40.708189 160.04584,40.408182 C 159.82084,40.108189 159.51111,39.958189 159.11667,39.958182 C 158.55556,39.958189 158.1125,40.184578 157.78751,40.637348 C 157.4625,41.090133 157.30001,41.916521 157.30001,43.116515 L 157.30001,47.708182 L 156.07501,47.708182 z M 178.10834,40.524848 L 171.49167,40.524848 L 171.49167,39.124848 L 178.10834,39.124848 L 178.10834,40.524848 z M 178.10834,44.233182 L 171.49167,44.233182 L 171.49167,42.833182 L 178.10834,42.833182 L 178.10834,44.233182 z M 49.675,69.041518 L 49.675,61.358184 L 48.583334,61.358184 L 48.583334,60.191517 L 49.675,60.191517 L 49.675,59.249851 C 49.674999,58.555417 49.747221,58.034584 49.891667,57.687351 C 50.03611,57.34014 50.256943,57.074863 50.554167,56.891517 C 50.851387,56.708196 51.224998,56.61653 51.675,56.616517 C 52.024997,56.61653 52.40833,56.66653 52.825,56.766517 L 52.641667,58.074851 C 52.386108,58.019306 52.144441,57.991528 51.916667,57.991517 C 51.549997,57.991528 51.287497,58.087362 51.129167,58.279017 C 50.970831,58.470695 50.891665,58.835972 50.891667,59.374851 L 50.891667,60.191517 L 52.308334,60.191517 L 52.308334,61.358184 L 50.891667,61.358184 L 50.891667,69.041518 L 49.675,69.041518 z M 57.983334,69.041518 L 57.983334,67.741518 C 57.699996,68.241519 57.366663,68.616518 56.983334,68.866518 C 56.599997,69.116518 56.166664,69.241518 55.683334,69.241518 C 55.111109,69.241518 54.622221,69.087351 54.216668,68.779018 C 53.81111,68.470685 53.540277,68.080408 53.404167,67.608184 C 53.268055,67.135964 53.2,66.49152 53.200001,65.674851 L 53.200001,60.191517 L 54.425001,60.191517 L 54.425001,65.099851 C 54.424999,66.010965 54.470832,66.620687 54.562501,66.929018 C 54.654165,67.237353 54.82361,67.484575 55.070834,67.670684 C 55.318053,67.856797 55.599998,67.949852 55.916668,67.949851 C 56.505552,67.949852 56.988885,67.708186 57.366668,67.224851 C 57.688885,66.808187 57.849996,66.044299 57.850001,64.933184 L 57.850001,60.191517 L 59.083334,60.191517 L 59.083334,69.041518 L 57.983334,69.041518 z M 61.025,69.041518 L 61.025,60.191517 L 62.133333,60.191517 L 62.133333,61.449851 C 62.399998,60.96097 62.726386,60.595693 63.1125,60.354017 C 63.498608,60.11236 63.941663,59.991526 64.441667,59.991517 C 64.830551,59.991526 65.190273,60.067915 65.520834,60.220684 C 65.851383,60.373471 66.11805,60.57347 66.320834,60.820684 C 66.523605,61.067914 66.674994,61.388747 66.775,61.783184 C 66.874994,62.177636 66.924994,62.78319 66.925,63.599851 L 66.925,69.041518 L 65.691667,69.041518 L 65.691667,63.658184 C 65.691661,63.00819 65.636106,62.533191 65.525,62.233184 C 65.413884,61.933191 65.240273,61.701247 65.004167,61.537351 C 64.768051,61.37347 64.49444,61.291525 64.183334,61.291517 C 63.594441,61.291525 63.124997,61.510969 62.775,61.949851 C 62.424998,62.388746 62.249998,63.141523 62.25,64.208184 L 62.25,69.041518 L 61.025,69.041518 z M 73.583335,65.799851 L 74.791668,65.991518 C 74.652773,67.047075 74.304162,67.85263 73.745835,68.408185 C 73.187496,68.96374 72.516663,69.241518 71.733335,69.241518 C 70.783332,69.241518 70.001388,68.85124 69.387501,68.070685 C 68.773611,67.290131 68.466667,66.135965 68.466668,64.608184 C 68.466667,63.069301 68.776389,61.915136 69.395835,61.145684 C 70.015277,60.376248 70.81111,59.991526 71.783335,59.991517 C 72.53333,59.991526 73.165274,60.22486 73.679168,60.691517 C 74.193051,61.158192 74.522217,61.858191 74.666668,62.791518 L 73.475001,63.016518 C 73.358329,62.416524 73.155552,61.967913 72.866668,61.670684 C 72.577775,61.37347 72.230553,61.224859 71.825001,61.224851 C 71.219442,61.224859 70.718054,61.492914 70.320835,62.029018 C 69.92361,62.565135 69.724999,63.416523 69.725001,64.583184 C 69.724999,65.788743 69.915277,66.660965 70.295835,67.199851 C 70.676387,67.738741 71.163887,68.008186 71.758335,68.008185 C 72.224997,68.008186 72.623608,67.829019 72.954168,67.470684 C 73.284718,67.112353 73.49444,66.555409 73.583335,65.799851 L 73.583335,65.799851 z M 78.56667,67.699851 L 78.733337,69.024851 C 78.394444,69.11374 78.088889,69.158184 77.81667,69.158185 C 77.38889,69.158184 77.044445,69.073462 76.783336,68.904018 C 76.522224,68.734574 76.343057,68.50263 76.245836,68.208185 C 76.148613,67.913741 76.100002,67.327631 76.100003,66.449851 L 76.100003,61.358184 L 75.200003,61.358184 L 75.200003,60.191517 L 76.100003,60.191517 L 76.100003,57.999851 L 77.325003,57.099851 L 77.325003,60.191517 L 78.56667,60.191517 L 78.56667,61.358184 L 77.325003,61.358184 L 77.325003,66.533184 C 77.325001,67.010964 77.361112,67.319297 77.433337,67.458184 C 77.538889,67.658186 77.736111,67.758186 78.025003,67.758184 C 78.163889,67.758186 78.344444,67.738741 78.56667,67.699851 L 78.56667,67.699851 z M 79.725001,58.549851 L 79.725001,56.824851 L 80.950001,56.824851 L 80.950001,58.549851 L 79.725001,58.549851 z M 79.725001,69.041518 L 79.725001,60.191517 L 80.950001,60.191517 L 80.950001,69.041518 L 79.725001,69.041518 z M 82.36667,64.616518 C 82.366669,63.088746 82.687502,61.935969 83.32917,61.158184 C 83.970834,60.380415 84.783334,59.991526 85.76667,59.991517 C 86.733332,59.991526 87.541664,60.380415 88.19167,61.158184 C 88.841663,61.935969 89.166663,63.05819 89.16667,64.524851 C 89.166663,66.113743 88.847219,67.297075 88.208337,68.074851 C 87.569442,68.852629 86.755554,69.241518 85.76667,69.241518 C 84.794445,69.241518 83.984723,68.85124 83.337503,68.070685 C 82.69028,67.290131 82.366669,66.138743 82.36667,64.616518 L 82.36667,64.616518 z M 83.625003,64.616518 C 83.625001,65.760965 83.833335,66.612354 84.250003,67.170684 C 84.666667,67.729019 85.183333,68.008186 85.800003,68.008185 C 86.377777,68.008186 86.873609,67.726241 87.287503,67.162351 C 87.701386,66.598465 87.908331,65.749854 87.908337,64.616518 C 87.908331,63.477634 87.699998,62.629024 87.283337,62.070684 C 86.866665,61.512358 86.349999,61.233192 85.733337,61.233184 C 85.15,61.233192 84.652778,61.513747 84.24167,62.074851 C 83.830557,62.635968 83.625001,63.48319 83.625003,64.616518 L 83.625003,64.616518 z M 90.625002,69.041518 L 90.625002,60.191517 L 91.733336,60.191517 L 91.733336,61.449851 C 92,60.96097 92.326389,60.595693 92.712502,60.354017 C 93.09861,60.11236 93.541665,59.991526 94.041669,59.991517 C 94.430553,59.991526 94.790275,60.067915 95.120836,60.220684 C 95.451386,60.373471 95.718052,60.57347 95.920836,60.820684 C 96.123607,61.067914 96.274996,61.388747 96.375003,61.783184 C 96.474996,62.177636 96.524996,62.78319 96.525003,63.599851 L 96.525003,69.041518 L 95.291669,69.041518 L 95.291669,63.658184 C 95.291664,63.00819 95.236108,62.533191 95.125003,62.233184 C 95.013886,61.933191 94.840275,61.701247 94.604169,61.537351 C 94.368053,61.37347 94.094443,61.291525 93.783336,61.291517 C 93.194443,61.291525 92.724999,61.510969 92.375002,61.949851 C 92.025,62.388746 91.85,63.141523 91.850002,64.208184 L 91.850002,69.041518 L 90.625002,69.041518 z M 104.69167,72.633185 C 104.08056,71.677627 103.52361,70.49985 103.02084,69.099851 C 102.51806,67.699853 102.26667,66.202632 102.26667,64.608184 C 102.26667,61.908191 103.075,59.244305 104.69167,56.616517 L 105.575,56.616517 C 104.95278,57.922084 104.52361,58.934583 104.2875,59.654017 C 104.05139,60.373471 103.86528,61.163748 103.72917,62.024851 C 103.59306,62.885968 103.525,63.752634 103.525,64.624851 C 103.525,67.29152 104.20833,69.960961 105.575,72.633185 L 104.69167,72.633185 z M 107.48333,72.633185 L 106.6,72.633185 C 107.96111,69.960961 108.64166,67.29152 108.64167,64.624851 C 108.64166,63.752634 108.57361,62.885968 108.4375,62.024851 C 108.30139,61.163748 108.11667,60.373471 107.88333,59.654017 C 107.65,58.934583 107.22222,57.922084 106.6,56.616517 L 107.48333,56.616517 C 109.1,59.244305 109.90833,61.908191 109.90833,64.608184 C 109.90833,66.158187 109.66666,67.631797 109.18333,69.029018 C 108.7,70.426239 108.13333,71.627627 107.48333,72.633185 L 107.48333,72.633185 z M 48.808334,85.274854 C 49.119444,85.269303 49.38611,85.170692 49.608334,84.97902 C 49.830554,84.787359 49.987499,84.509582 50.079167,84.145687 C 50.170832,83.781804 50.219443,83.083194 50.225,82.049853 C 50.230554,81.038752 50.249998,80.36653 50.283334,80.033187 C 50.344443,79.494309 50.483332,79.047087 50.7,78.69152 C 50.855553,78.430421 51.063887,78.241532 51.325,78.124853 C 51.586108,78.008199 51.938886,77.949866 52.383334,77.949853 L 52.766667,77.949853 L 52.766667,79.258187 L 52.55,79.258187 C 52.08333,79.258198 51.77083,79.359586 51.6125,79.562353 C 51.454164,79.765142 51.374997,80.233197 51.375,80.96652 C 51.374997,82.499861 51.341664,83.472083 51.275,83.883187 C 51.186109,84.438748 51.041664,84.865137 50.841667,85.162354 C 50.641665,85.459581 50.344443,85.724858 49.95,85.958187 C 50.433332,86.208191 50.791665,86.591524 51.025,87.108187 C 51.258331,87.624856 51.374997,88.491522 51.375,89.708187 C 51.374997,90.935964 51.394442,91.65263 51.433334,91.858187 C 51.488886,92.15263 51.591664,92.359574 51.741667,92.479021 C 51.891664,92.598463 52.161108,92.658185 52.55,92.658187 L 52.766667,92.658187 L 52.766667,93.966521 L 52.383334,93.966521 C 51.905552,93.966517 51.547219,93.906795 51.308334,93.787354 C 51.069442,93.667906 50.874998,93.494295 50.725,93.266521 C 50.519443,92.955407 50.386109,92.591518 50.325,92.174854 C 50.263887,91.758186 50.230554,90.988742 50.225,89.86652 C 50.219443,88.833189 50.169443,88.1318 50.075,87.762354 C 49.980554,87.392912 49.824999,87.115135 49.608334,86.92902 C 49.391666,86.742913 49.125,86.644302 48.808334,86.633187 L 48.808334,85.274854 z M 57.125,111.70819 L 57.125,102.85819 L 58.233334,102.85819 L 58.233334,104.19986 C 58.516665,103.57764 58.776387,103.16514 59.012501,102.96236 C 59.248609,102.75959 59.513886,102.6582 59.808334,102.65819 C 60.219441,102.6582 60.638885,102.81931 61.066667,103.14152 L 60.650001,104.53319 C 60.344441,104.31653 60.047219,104.2082 59.758334,104.20819 C 59.49722,104.2082 59.258331,104.29986 59.041667,104.48319 C 58.824998,104.66653 58.67222,104.92208 58.583334,105.24986 C 58.427776,105.82208 58.349998,106.43042 58.35,107.07486 L 58.35,111.70819 L 57.125,111.70819 z M 66.758333,108.85819 L 68.025,109.04986 C 67.813882,109.9943 67.431938,110.7068 66.879167,111.18736 C 66.326383,111.66791 65.641662,111.90819 64.825,111.90819 C 63.797219,111.90819 62.965276,111.51791 62.329166,110.73736 C 61.693055,109.9568 61.374999,108.83041 61.375,107.35819 C 61.374999,105.83042 61.695832,104.66514 62.3375,103.86236 C 62.979164,103.05959 63.791664,102.6582 64.775,102.65819 C 65.713884,102.6582 66.497217,103.05264 67.125,103.84152 C 67.752771,104.63042 68.06666,105.77208 68.066667,107.26652 L 68.058333,107.66652 L 62.641667,107.66652 C 62.691665,108.66097 62.92222,109.41097 63.333333,109.91652 C 63.744441,110.42208 64.244441,110.67486 64.833333,110.67486 C 65.755551,110.67486 66.397217,110.0693 66.758333,108.85819 L 66.758333,108.85819 z M 62.716667,106.43319 L 66.766667,106.43319 C 66.711105,105.66653 66.547217,105.09431 66.275,104.71652 C 65.880551,104.16653 65.377773,103.89153 64.766667,103.89152 C 64.216663,103.89153 63.747219,104.1207 63.358333,104.57902 C 62.969442,105.03736 62.755554,105.65542 62.716667,106.43319 L 62.716667,106.43319 z M 72.333334,110.36652 L 72.500001,111.69152 C 72.161109,111.78041 71.855553,111.82486 71.583334,111.82486 C 71.155554,111.82486 70.81111,111.74013 70.550001,111.57069 C 70.288888,111.40125 70.109722,111.1693 70.012501,110.87486 C 69.915278,110.58041 69.866666,109.9943 69.866668,109.11652 L 69.866668,104.02486 L 68.966668,104.02486 L 68.966668,102.85819 L 69.866668,102.85819 L 69.866668,100.66652 L 71.091668,99.766522 L 71.091668,102.85819 L 72.333334,102.85819 L 72.333334,104.02486 L 71.091668,104.02486 L 71.091668,109.19986 C 71.091665,109.67764 71.127776,109.98597 71.200001,110.12486 C 71.305554,110.32486 71.502776,110.42486 71.791668,110.42486 C 71.930553,110.42486 72.111109,110.40541 72.333334,110.36652 L 72.333334,110.36652 z M 78.250001,111.70819 L 78.250001,110.40819 C 77.966662,110.90819 77.633329,111.28319 77.250001,111.53319 C 76.866663,111.78319 76.43333,111.90819 75.950001,111.90819 C 75.377776,111.90819 74.888887,111.75402 74.483334,111.44569 C 74.077777,111.13736 73.806944,110.74708 73.670834,110.27486 C 73.534722,109.80264 73.466666,109.15819 73.466667,108.34152 L 73.466667,102.85819 L 74.691667,102.85819 L 74.691667,107.76652 C 74.691665,108.67764 74.737498,109.28736 74.829167,109.59569 C 74.920832,109.90402 75.090276,110.15125 75.337501,110.33736 C 75.58472,110.52347 75.866664,110.61652 76.183334,110.61652 C 76.772219,110.61652 77.255552,110.37486 77.633334,109.89152 C 77.955551,109.47486 78.116662,108.71097 78.116667,107.59986 L 78.116667,102.85819 L 79.350001,102.85819 L 79.350001,111.70819 L 78.250001,111.70819 z M 81.291666,111.70819 L 81.291666,102.85819 L 82.4,102.85819 L 82.4,104.19986 C 82.683331,103.57764 82.943053,103.16514 83.179167,102.96236 C 83.415275,102.75959 83.680552,102.6582 83.975,102.65819 C 84.386107,102.6582 84.805551,102.81931 85.233333,103.14152 L 84.816667,104.53319 C 84.511107,104.31653 84.213885,104.2082 83.925,104.20819 C 83.663886,104.2082 83.424997,104.29986 83.208333,104.48319 C 82.991664,104.66653 82.838886,104.92208 82.75,105.24986 C 82.594442,105.82208 82.516664,106.43042 82.516667,107.07486 L 82.516667,111.70819 L 81.291666,111.70819 z M 85.958334,111.70819 L 85.958334,102.85819 L 87.066668,102.85819 L 87.066668,104.11652 C 87.333332,103.62764 87.659721,103.26236 88.045835,103.02069 C 88.431942,102.77903 88.874997,102.6582 89.375001,102.65819 C 89.763885,102.6582 90.123607,102.73459 90.454168,102.88736 C 90.784718,103.04014 91.051384,103.24014 91.254168,103.48736 C 91.456939,103.73459 91.608328,104.05542 91.708335,104.44986 C 91.808328,104.84431 91.858328,105.44986 91.858335,106.26652 L 91.858335,111.70819 L 90.625001,111.70819 L 90.625001,106.32486 C 90.624996,105.67486 90.56944,105.19986 90.458335,104.89986 C 90.347218,104.59986 90.173607,104.36792 89.937501,104.20402 C 89.701386,104.04014 89.427775,103.9582 89.116668,103.95819 C 88.527776,103.9582 88.058332,104.17764 87.708334,104.61652 C 87.358332,105.05542 87.183332,105.8082 87.183334,106.87486 L 87.183334,111.70819 L 85.958334,111.70819 z M 100.4,110.36652 L 100.56667,111.69152 C 100.22778,111.78041 99.922221,111.82486 99.650002,111.82486 C 99.222222,111.82486 98.877778,111.74013 98.616669,111.57069 C 98.355556,111.40125 98.176389,111.1693 98.079169,110.87486 C 97.981945,110.58041 97.933334,109.9943 97.933335,109.11652 L 97.933335,104.02486 L 97.033335,104.02486 L 97.033335,102.85819 L 97.933335,102.85819 L 97.933335,100.66652 L 99.158335,99.766522 L 99.158335,102.85819 L 100.4,102.85819 L 100.4,104.02486 L 99.158335,104.02486 L 99.158335,109.19986 C 99.158333,109.67764 99.194444,109.98597 99.266669,110.12486 C 99.372222,110.32486 99.569444,110.42486 99.858335,110.42486 C 99.997221,110.42486 100.17778,110.40541 100.4,110.36652 L 100.4,110.36652 z M 101.55834,111.70819 L 101.55834,99.491522 L 102.78334,99.491522 L 102.78334,103.87486 C 103.07222,103.46931 103.39861,103.16514 103.7625,102.96236 C 104.12639,102.75959 104.52778,102.6582 104.96667,102.65819 C 105.73889,102.6582 106.34861,102.90403 106.79584,103.39569 C 107.24305,103.88736 107.46666,104.78875 107.46667,106.09986 L 107.46667,111.70819 L 106.24167,111.70819 L 106.24167,106.09986 C 106.24166,105.3332 106.10555,104.7832 105.83334,104.44986 C 105.56111,104.11653 105.18611,103.94986 104.70834,103.94986 C 104.175,103.94986 103.72083,104.16375 103.34584,104.59152 C 102.97083,105.01931 102.78333,105.77764 102.78334,106.86652 L 102.78334,111.70819 L 101.55834,111.70819 z M 109.35834,101.21652 L 109.35834,99.491522 L 110.58334,99.491522 L 110.58334,101.21652 L 109.35834,101.21652 z M 109.35834,111.70819 L 109.35834,102.85819 L 110.58334,102.85819 L 110.58334,111.70819 L 109.35834,111.70819 z M 111.99167,109.06652 L 113.20833,108.83319 C 113.28055,109.45541 113.47778,109.91791 113.8,110.22069 C 114.12222,110.52347 114.55,110.67486 115.08333,110.67486 C 115.61666,110.67486 116.02916,110.54291 116.32083,110.27902 C 116.6125,110.01514 116.75833,109.68041 116.75833,109.27486 C 116.75833,108.92486 116.63333,108.65264 116.38333,108.45819 C 116.21111,108.32486 115.79444,108.15819 115.13333,107.95819 C 114.17778,107.66375 113.53889,107.41375 113.21667,107.20819 C 112.89444,107.00264 112.64444,106.72764 112.46667,106.38319 C 112.28889,106.03875 112.2,105.64708 112.2,105.20819 C 112.2,104.45264 112.44167,103.83875 112.925,103.36652 C 113.40833,102.89431 114.07778,102.6582 114.93333,102.65819 C 115.47222,102.6582 115.94583,102.75542 116.35417,102.94986 C 116.7625,103.14431 117.075,103.40542 117.29167,103.73319 C 117.50833,104.06097 117.65833,104.53042 117.74167,105.14152 L 116.54167,105.34152 C 116.43055,104.37486 115.90555,103.89153 114.96667,103.89152 C 114.43333,103.89153 114.03611,103.99847 113.775,104.21236 C 113.51389,104.42625 113.38333,104.69986 113.38333,105.03319 C 113.38333,105.36097 113.50833,105.61931 113.75833,105.80819 C 113.90833,105.91931 114.35278,106.09708 115.09167,106.34152 C 116.10833,106.66931 116.76666,106.92903 117.06667,107.12069 C 117.36666,107.31236 117.6,107.57347 117.76667,107.90402 C 117.93333,108.23458 118.01666,108.62764 118.01667,109.08319 C 118.01666,109.92764 117.74861,110.61097 117.2125,111.13319 C 116.67639,111.65541 115.94444,111.91652 115.01667,111.91652 C 113.27778,111.91652 112.26944,110.96652 111.99167,109.06652 L 111.99167,109.06652 z M 96.516669,133.04153 L 96.516669,131.33319 L 97.916669,131.33319 L 97.916669,133.04153 L 96.516669,133.04153 z M 100.025,133.04153 L 100.025,124.19153 L 101.13333,124.19153 L 101.13333,125.53319 C 101.41666,124.91098 101.67639,124.49848 101.9125,124.29569 C 102.14861,124.09292 102.41389,123.99153 102.70833,123.99153 C 103.11944,123.99153 103.53888,124.15265 103.96667,124.47486 L 103.55,125.86653 C 103.24444,125.64987 102.94722,125.54153 102.65833,125.54153 C 102.39722,125.54153 102.15833,125.6332 101.94167,125.81653 C 101.725,125.99987 101.57222,126.25542 101.48333,126.58319 C 101.32778,127.15542 101.25,127.76375 101.25,128.40819 L 101.25,133.04153 L 100.025,133.04153 z M 109.65833,130.19153 L 110.925,130.38319 C 110.71388,131.32764 110.33194,132.04014 109.77917,132.52069 C 109.22639,133.00125 108.54166,133.24153 107.725,133.24153 C 106.69722,133.24153 105.86528,132.85125 105.22917,132.07069 C 104.59306,131.29014 104.275,130.16375 104.275,128.69153 C 104.275,127.16375 104.59583,125.99848 105.2375,125.19569 C 105.87917,124.39292 106.69167,123.99153 107.675,123.99153 C 108.61389,123.99153 109.39722,124.38598 110.025,125.17486 C 110.65277,125.96375 110.96666,127.10542 110.96667,128.59986 L 110.95833,128.99986 L 105.54167,128.99986 C 105.59167,129.99431 105.82222,130.74431 106.23333,131.24986 C 106.64444,131.75542 107.14444,132.00819 107.73333,132.00819 C 108.65555,132.00819 109.29722,131.40264 109.65833,130.19153 L 109.65833,130.19153 z M 105.61667,127.76653 L 109.66667,127.76653 C 109.61111,126.99986 109.44722,126.42764 109.175,126.04986 C 108.78055,125.49987 108.27777,125.22487 107.66667,125.22486 C 107.11666,125.22487 106.64722,125.45403 106.25833,125.91236 C 105.86944,126.3707 105.65556,126.98875 105.61667,127.76653 L 105.61667,127.76653 z M 112.49167,136.43319 L 112.49167,124.19153 L 113.61667,124.19153 L 113.61667,125.34153 C 113.89444,124.86376 114.20278,124.51931 114.54167,124.30819 C 114.88055,124.09709 115.26944,123.99153 115.70833,123.99153 C 116.28055,123.99153 116.79722,124.16098 117.25833,124.49986 C 117.71944,124.83876 118.09027,125.35403 118.37083,126.04569 C 118.65138,126.73736 118.79166,127.56931 118.79167,128.54153 C 118.79166,130.04708 118.47638,131.20681 117.84583,132.02069 C 117.21527,132.83458 116.475,133.24153 115.625,133.24153 C 115.24722,133.24153 114.89444,133.1443 114.56667,132.94986 C 114.23889,132.75541 113.95555,132.48041 113.71667,132.12486 L 113.71667,136.43319 L 112.49167,136.43319 z M 113.6,128.66653 C 113.6,129.81097 113.79167,130.65403 114.175,131.19569 C 114.55833,131.73736 115.02222,132.00819 115.56667,132.00819 C 116.08889,132.00819 116.54722,131.72764 116.94167,131.16653 C 117.33611,130.60542 117.53333,129.73875 117.53333,128.56653 C 117.53333,127.41098 117.34166,126.55542 116.95833,125.99986 C 116.575,125.44431 116.10833,125.16653 115.55833,125.16653 C 115.06389,125.16653 114.61389,125.46514 114.20833,126.06236 C 113.80278,126.65959 113.6,127.52764 113.6,128.66653 L 113.6,128.66653 z M 120.25834,133.04153 L 120.25834,120.82486 L 121.48334,120.82486 L 121.48334,133.04153 L 120.25834,133.04153 z M 128.125,131.94986 C 127.71389,132.37764 127.28611,132.69986 126.84167,132.91653 C 126.39722,133.13319 125.93611,133.24153 125.45834,133.24153 C 124.70278,133.24153 124.1,133.01375 123.65,132.55819 C 123.2,132.10264 122.975,131.48875 122.975,130.71653 C 122.975,130.20542 123.08056,129.75264 123.29167,129.35819 C 123.50278,128.96375 123.79167,128.65542 124.15834,128.43319 C 124.525,128.21097 125.08056,128.04709 125.825,127.94153 C 126.825,127.79709 127.55833,127.62486 128.025,127.42486 L 128.03334,127.04153 C 128.03333,126.43598 127.925,126.01098 127.70834,125.76653 C 127.40278,125.41098 126.93333,125.2332 126.3,125.23319 C 125.72778,125.2332 125.3,125.35126 125.01667,125.58736 C 124.73333,125.82348 124.525,126.26653 124.39167,126.91653 L 123.18334,126.71653 C 123.35556,125.76653 123.70417,125.07487 124.22917,124.64153 C 124.75417,124.2082 125.50555,123.99153 126.48334,123.99153 C 127.24444,123.99153 127.84166,124.13459 128.275,124.42069 C 128.70833,124.70681 128.98194,125.06098 129.09584,125.48319 C 129.20972,125.90542 129.26666,126.52209 129.26667,127.33319 L 129.26667,129.33319 C 129.26666,130.73319 129.29305,131.61514 129.34584,131.97903 C 129.39861,132.34292 129.50277,132.69708 129.65834,133.04153 L 128.375,133.04153 C 128.24722,132.73597 128.16389,132.37208 128.125,131.94986 L 128.125,131.94986 z M 128.025,128.59986 C 127.575,128.82209 126.90555,129.01097 126.01667,129.16653 C 125.5,129.25542 125.13889,129.35681 124.93334,129.47069 C 124.72778,129.58458 124.56806,129.7457 124.45417,129.95403 C 124.34028,130.16236 124.28333,130.40264 124.28334,130.67486 C 124.28333,131.09708 124.41389,131.43458 124.675,131.68736 C 124.93611,131.94014 125.29722,132.06653 125.75834,132.06653 C 126.19722,132.06653 126.59583,131.95264 126.95417,131.72486 C 127.3125,131.49708 127.58055,131.19292 127.75834,130.81236 C 127.93611,130.43181 128.025,129.87764 128.025,129.14986 L 128.025,128.59986 z M 135.95001,129.79986 L 137.15834,129.99153 C 137.01944,131.04708 136.67083,131.85264 136.11251,132.40819 C 135.55417,132.96375 134.88333,133.24153 134.10001,133.24153 C 133.15,133.24153 132.36806,132.85125 131.75417,132.07069 C 131.14028,131.29014 130.83334,130.13597 130.83334,128.60819 C 130.83334,127.06931 131.14306,125.91514 131.76251,125.14569 C 132.38195,124.37626 133.17778,123.99153 134.15001,123.99153 C 134.9,123.99153 135.53194,124.22487 136.04584,124.69153 C 136.55972,125.1582 136.88889,125.8582 137.03334,126.79153 L 135.84167,127.01653 C 135.725,126.41653 135.52222,125.96792 135.23334,125.67069 C 134.94445,125.37348 134.59722,125.22487 134.19167,125.22486 C 133.58611,125.22487 133.08472,125.49292 132.68751,126.02903 C 132.29028,126.56514 132.09167,127.41653 132.09167,128.58319 C 132.09167,129.78875 132.28195,130.66097 132.66251,131.19986 C 133.04306,131.73875 133.53056,132.00819 134.12501,132.00819 C 134.59167,132.00819 134.99028,131.82903 135.32084,131.47069 C 135.65139,131.11236 135.86111,130.55542 135.95001,129.79986 L 135.95001,129.79986 z M 143.15834,130.19153 L 144.42501,130.38319 C 144.21389,131.32764 143.83194,132.04014 143.27917,132.52069 C 142.72639,133.00125 142.04167,133.24153 141.22501,133.24153 C 140.19722,133.24153 139.36528,132.85125 138.72917,132.07069 C 138.09306,131.29014 137.775,130.16375 137.77501,128.69153 C 137.775,127.16375 138.09584,125.99848 138.73751,125.19569 C 139.37917,124.39292 140.19167,123.99153 141.17501,123.99153 C 142.11389,123.99153 142.89722,124.38598 143.52501,125.17486 C 144.15278,125.96375 144.46666,127.10542 144.46667,128.59986 L 144.45834,128.99986 L 139.04167,128.99986 C 139.09167,129.99431 139.32223,130.74431 139.73334,131.24986 C 140.14445,131.75542 140.64445,132.00819 141.23334,132.00819 C 142.15556,132.00819 142.79722,131.40264 143.15834,130.19153 L 143.15834,130.19153 z M 139.11667,127.76653 L 143.16667,127.76653 C 143.11111,126.99986 142.94722,126.42764 142.67501,126.04986 C 142.28056,125.49987 141.77778,125.22487 141.16667,125.22486 C 140.61667,125.22487 140.14722,125.45403 139.75834,125.91236 C 139.36945,126.3707 139.15556,126.98875 139.11667,127.76653 L 139.11667,127.76653 z M 152.25834,136.63319 C 151.64722,135.67763 151.09028,134.49986 150.5875,133.09986 C 150.08472,131.69986 149.83333,130.20264 149.83334,128.60819 C 149.83333,125.9082 150.64167,123.24431 152.25834,120.61652 L 153.14167,120.61652 C 152.51944,121.92209 152.09028,122.93459 151.85417,123.65403 C 151.61806,124.37348 151.43194,125.16376 151.29584,126.02486 C 151.15972,126.88598 151.09167,127.75264 151.09167,128.62486 C 151.09167,131.29153 151.775,133.96097 153.14167,136.63319 L 152.25834,136.63319 z M 153.65834,133.24986 L 156.55834,120.61652 L 157.55001,120.61652 L 154.64167,133.24986 L 153.65834,133.24986 z M 159.19167,127.29153 L 157.93333,127.29153 L 160.35,120.61652 L 161.34167,120.61652 L 163.75833,127.29153 L 162.525,127.29153 L 160.83333,122.31652 L 159.19167,127.29153 z M 167.02501,133.24986 L 164.12501,120.61652 L 165.11667,120.61652 L 168.01667,133.24986 L 167.02501,133.24986 z M 168.45833,130.39986 L 169.675,130.16653 C 169.74722,130.78875 169.94444,131.25125 170.26667,131.55403 C 170.58889,131.8568 171.01667,132.00819 171.55,132.00819 C 172.08333,132.00819 172.49583,131.87625 172.7875,131.61236 C 173.07916,131.34847 173.225,131.01375 173.225,130.60819 C 173.225,130.25819 173.1,129.98597 172.85,129.79153 C 172.67777,129.6582 172.26111,129.49153 171.6,129.29153 C 170.64444,128.99708 170.00556,128.74709 169.68333,128.54153 C 169.36111,128.33597 169.11111,128.06097 168.93333,127.71653 C 168.75556,127.37209 168.66667,126.98042 168.66667,126.54153 C 168.66667,125.78598 168.90833,125.17209 169.39167,124.69986 C 169.875,124.22764 170.54444,123.99153 171.4,123.99153 C 171.93889,123.99153 172.4125,124.08876 172.82084,124.28319 C 173.22916,124.47764 173.54166,124.73876 173.75834,125.06653 C 173.975,125.39431 174.125,125.86375 174.20834,126.47486 L 173.00834,126.67486 C 172.89722,125.7082 172.37222,125.22487 171.43334,125.22486 C 170.9,125.22487 170.50278,125.33181 170.24167,125.54569 C 169.98056,125.75959 169.85,126.0332 169.85,126.36653 C 169.85,126.69431 169.975,126.95264 170.225,127.14153 C 170.375,127.25264 170.81944,127.43042 171.55834,127.67486 C 172.575,128.00264 173.23333,128.26236 173.53334,128.45403 C 173.83333,128.6457 174.06666,128.90681 174.23334,129.23736 C 174.4,129.56792 174.48333,129.96097 174.48334,130.41653 C 174.48333,131.26097 174.21527,131.9443 173.67917,132.46653 C 173.14305,132.98875 172.41111,133.24986 171.48334,133.24986 C 169.74444,133.24986 168.73611,132.29986 168.45833,130.39986 L 168.45833,130.39986 z M 178.51668,131.06653 L 178.51668,127.71653 L 175.79168,127.71653 L 175.79168,126.31653 L 178.51668,126.31653 L 178.51668,122.99153 L 179.68334,122.99153 L 179.68334,126.31653 L 182.40834,126.31653 L 182.40834,127.71653 L 179.68334,127.71653 L 179.68334,131.06653 L 178.51668,131.06653 z M 183.19167,133.24986 L 186.09167,120.61652 L 187.08333,120.61652 L 184.175,133.24986 L 183.19167,133.24986 z M 188.35834,133.04153 L 188.35834,131.33319 L 189.75834,131.33319 L 189.75834,133.04153 C 189.75834,133.70264 189.66112,134.22069 189.46667,134.59569 C 189.27223,134.97069 188.9889,135.25819 188.61667,135.45819 L 188.27501,134.81653 C 188.52501,134.68319 188.7139,134.48458 188.84167,134.22069 C 188.96945,133.9568 189.0389,133.56375 189.05001,133.04153 L 188.35834,133.04153 z M 195.86668,125.14986 L 195.52501,122.82486 L 195.52501,120.82486 L 196.92501,120.82486 L 196.92501,122.82486 L 196.61668,125.14986 L 195.86668,125.14986 z M 198.12501,125.14986 L 197.80001,122.82486 L 197.80001,120.82486 L 199.20001,120.82486 L 199.20001,122.82486 L 198.86668,125.14986 L 198.12501,125.14986 z M 200.83334,125.14986 L 200.49167,122.82486 L 200.49167,120.82486 L 201.89167,120.82486 L 201.89167,122.82486 L 201.58334,125.14986 L 200.83334,125.14986 z M 203.09167,125.14986 L 202.76667,122.82486 L 202.76667,120.82486 L 204.16667,120.82486 L 204.16667,122.82486 L 203.83334,125.14986 L 203.09167,125.14986 z M 206.21668,136.63319 L 205.33335,136.63319 C 206.69445,133.96097 207.37501,131.29153 207.37501,128.62486 C 207.37501,127.75264 207.30695,126.88598 207.17085,126.02486 C 207.03473,125.16376 206.85001,124.37348 206.61668,123.65403 C 206.38334,122.93459 205.95557,121.92209 205.33335,120.61652 L 206.21668,120.61652 C 207.83334,123.24431 208.64168,125.9082 208.64168,128.60819 C 208.64168,130.15819 208.40001,131.6318 207.91668,133.02903 C 207.43334,134.42625 206.86668,135.62763 206.21668,136.63319 L 206.21668,136.63319 z M 96.516669,154.37485 L 96.516669,152.66652 L 97.916669,152.66652 L 97.916669,154.37485 L 96.516669,154.37485 z M 100.025,154.37485 L 100.025,145.52485 L 101.13333,145.52485 L 101.13333,146.86652 C 101.41666,146.24431 101.67639,145.83181 101.9125,145.62902 C 102.14861,145.42625 102.41389,145.32486 102.70833,145.32485 C 103.11944,145.32486 103.53888,145.48597 103.96667,145.80819 L 103.55,147.19985 C 103.24444,146.98319 102.94722,146.87486 102.65833,146.87485 C 102.39722,146.87486 102.15833,146.96653 101.94167,147.14985 C 101.725,147.33319 101.57222,147.58875 101.48333,147.91652 C 101.32778,148.48875 101.25,149.09708 101.25,149.74152 L 101.25,154.37485 L 100.025,154.37485 z M 109.65833,151.52485 L 110.925,151.71652 C 110.71388,152.66097 110.33194,153.37347 109.77917,153.85402 C 109.22639,154.33458 108.54166,154.57485 107.725,154.57485 C 106.69722,154.57485 105.86528,154.18458 105.22917,153.40402 C 104.59306,152.62347 104.275,151.49708 104.275,150.02485 C 104.275,148.49708 104.59583,147.3318 105.2375,146.52902 C 105.87917,145.72625 106.69167,145.32486 107.675,145.32485 C 108.61389,145.32486 109.39722,145.71931 110.025,146.50819 C 110.65277,147.29708 110.96666,148.43875 110.96667,149.93319 L 110.95833,150.33319 L 105.54167,150.33319 C 105.59167,151.32763 105.82222,152.07763 106.23333,152.58319 C 106.64444,153.08874 107.14444,153.34152 107.73333,153.34152 C 108.65555,153.34152 109.29722,152.73597 109.65833,151.52485 L 109.65833,151.52485 z M 105.61667,149.09985 L 109.66667,149.09985 C 109.61111,148.33319 109.44722,147.76097 109.175,147.38319 C 108.78055,146.83319 108.27777,146.55819 107.66667,146.55819 C 107.11666,146.55819 106.64722,146.78736 106.25833,147.24569 C 105.86944,147.70403 105.65556,148.32208 105.61667,149.09985 L 105.61667,149.09985 z M 112.49167,157.76652 L 112.49167,145.52485 L 113.61667,145.52485 L 113.61667,146.67485 C 113.89444,146.19708 114.20278,145.85264 114.54167,145.64152 C 114.88055,145.43042 115.26944,145.32486 115.70833,145.32485 C 116.28055,145.32486 116.79722,145.49431 117.25833,145.83319 C 117.71944,146.17208 118.09027,146.68736 118.37083,147.37902 C 118.65138,148.07069 118.79166,148.90264 118.79167,149.87485 C 118.79166,151.38041 118.47638,152.54013 117.84583,153.35402 C 117.21527,154.16791 116.475,154.57485 115.625,154.57485 C 115.24722,154.57485 114.89444,154.47763 114.56667,154.28319 C 114.23889,154.08874 113.95555,153.81374 113.71667,153.45819 L 113.71667,157.76652 L 112.49167,157.76652 z M 113.6,149.99985 C 113.6,151.1443 113.79167,151.98736 114.175,152.52902 C 114.55833,153.07069 115.02222,153.34152 115.56667,153.34152 C 116.08889,153.34152 116.54722,153.06097 116.94167,152.49985 C 117.33611,151.93874 117.53333,151.07208 117.53333,149.89985 C 117.53333,148.7443 117.34166,147.88875 116.95833,147.33319 C 116.575,146.77764 116.10833,146.49986 115.55833,146.49985 C 115.06389,146.49986 114.61389,146.79847 114.20833,147.39569 C 113.80278,147.99292 113.6,148.86097 113.6,149.99985 L 113.6,149.99985 z M 120.25834,154.37485 L 120.25834,142.15819 L 121.48334,142.15819 L 121.48334,154.37485 L 120.25834,154.37485 z M 128.125,153.28319 C 127.71389,153.71097 127.28611,154.03319 126.84167,154.24985 C 126.39722,154.46652 125.93611,154.57485 125.45834,154.57485 C 124.70278,154.57485 124.1,154.34708 123.65,153.89152 C 123.2,153.43597 122.975,152.82208 122.975,152.04985 C 122.975,151.53875 123.08056,151.08597 123.29167,150.69152 C 123.50278,150.29708 123.79167,149.98875 124.15834,149.76652 C 124.525,149.5443 125.08056,149.38041 125.825,149.27485 C 126.825,149.13041 127.55833,148.95819 128.025,148.75819 L 128.03334,148.37485 C 128.03333,147.7693 127.925,147.3443 127.70834,147.09985 C 127.40278,146.74431 126.93333,146.56653 126.3,146.56652 C 125.72778,146.56653 125.3,146.68458 125.01667,146.92069 C 124.73333,147.15681 124.525,147.59986 124.39167,148.24985 L 123.18334,148.04985 C 123.35556,147.09986 123.70417,146.40819 124.22917,145.97485 C 124.75417,145.54153 125.50555,145.32486 126.48334,145.32485 C 127.24444,145.32486 127.84166,145.46792 128.275,145.75402 C 128.70833,146.04014 128.98194,146.39431 129.09584,146.81652 C 129.20972,147.23875 129.26666,147.85542 129.26667,148.66652 L 129.26667,150.66652 C 129.26666,152.06652 129.29305,152.94847 129.34584,153.31235 C 129.39861,153.67624 129.50277,154.03041 129.65834,154.37485 L 128.375,154.37485 C 128.24722,154.0693 128.16389,153.70541 128.125,153.28319 L 128.125,153.28319 z M 128.025,149.93319 C 127.575,150.15541 126.90555,150.3443 126.01667,150.49985 C 125.5,150.58875 125.13889,150.69014 124.93334,150.80402 C 124.72778,150.91791 124.56806,151.07902 124.45417,151.28735 C 124.34028,151.49569 124.28333,151.73597 124.28334,152.00819 C 124.28333,152.43041 124.41389,152.76791 124.675,153.02069 C 124.93611,153.27347 125.29722,153.39985 125.75834,153.39985 C 126.19722,153.39985 126.59583,153.28597 126.95417,153.05819 C 127.3125,152.83041 127.58055,152.52624 127.75834,152.14569 C 127.93611,151.76513 128.025,151.21097 128.025,150.48319 L 128.025,149.93319 z M 135.95001,151.13319 L 137.15834,151.32485 C 137.01944,152.38041 136.67083,153.18597 136.11251,153.74152 C 135.55417,154.29708 134.88333,154.57485 134.10001,154.57485 C 133.15,154.57485 132.36806,154.18458 131.75417,153.40402 C 131.14028,152.62347 130.83334,151.4693 130.83334,149.94152 C 130.83334,148.40264 131.14306,147.24847 131.76251,146.47902 C 132.38195,145.70958 133.17778,145.32486 134.15001,145.32485 C 134.9,145.32486 135.53194,145.5582 136.04584,146.02485 C 136.55972,146.49153 136.88889,147.19153 137.03334,148.12485 L 135.84167,148.34985 C 135.725,147.74986 135.52222,147.30125 135.23334,147.00402 C 134.94445,146.70681 134.59722,146.55819 134.19167,146.55819 C 133.58611,146.55819 133.08472,146.82625 132.68751,147.36235 C 132.29028,147.89847 132.09167,148.74986 132.09167,149.91652 C 132.09167,151.12208 132.28195,151.9943 132.66251,152.53319 C 133.04306,153.07208 133.53056,153.34152 134.12501,153.34152 C 134.59167,153.34152 134.99028,153.16235 135.32084,152.80402 C 135.65139,152.44569 135.86111,151.88875 135.95001,151.13319 L 135.95001,151.13319 z M 143.15834,151.52485 L 144.42501,151.71652 C 144.21389,152.66097 143.83194,153.37347 143.27917,153.85402 C 142.72639,154.33458 142.04167,154.57485 141.22501,154.57485 C 140.19722,154.57485 139.36528,154.18458 138.72917,153.40402 C 138.09306,152.62347 137.775,151.49708 137.77501,150.02485 C 137.775,148.49708 138.09584,147.3318 138.73751,146.52902 C 139.37917,145.72625 140.19167,145.32486 141.17501,145.32485 C 142.11389,145.32486 142.89722,145.71931 143.52501,146.50819 C 144.15278,147.29708 144.46666,148.43875 144.46667,149.93319 L 144.45834,150.33319 L 139.04167,150.33319 C 139.09167,151.32763 139.32223,152.07763 139.73334,152.58319 C 140.14445,153.08874 140.64445,153.34152 141.23334,153.34152 C 142.15556,153.34152 142.79722,152.73597 143.15834,151.52485 L 143.15834,151.52485 z M 139.11667,149.09985 L 143.16667,149.09985 C 143.11111,148.33319 142.94722,147.76097 142.67501,147.38319 C 142.28056,146.83319 141.77778,146.55819 141.16667,146.55819 C 140.61667,146.55819 140.14722,146.78736 139.75834,147.24569 C 139.36945,147.70403 139.15556,148.32208 139.11667,149.09985 L 139.11667,149.09985 z M 152.25834,157.96652 C 151.64722,157.01096 151.09028,155.83319 150.5875,154.43319 C 150.08472,153.03319 149.83333,151.53597 149.83334,149.94152 C 149.83333,147.24153 150.64167,144.57764 152.25834,141.94985 L 153.14167,141.94985 C 152.51944,143.25542 152.09028,144.26792 151.85417,144.98735 C 151.61806,145.70681 151.43194,146.49708 151.29584,147.35819 C 151.15972,148.2193 151.09167,149.08597 151.09167,149.95819 C 151.09167,152.62486 151.775,155.2943 153.14167,157.96652 L 152.25834,157.96652 z M 153.65834,154.58319 L 156.55834,141.94985 L 157.55001,141.94985 L 154.64167,154.58319 L 153.65834,154.58319 z M 160.45833,154.58319 L 157.55833,141.94985 L 158.55,141.94985 L 161.45,154.58319 L 160.45833,154.58319 z M 161.89167,151.73319 L 163.10834,151.49985 C 163.18056,152.12208 163.37778,152.58458 163.7,152.88735 C 164.02222,153.19013 164.45,153.34152 164.98334,153.34152 C 165.51667,153.34152 165.92916,153.20958 166.22084,152.94569 C 166.5125,152.6818 166.65833,152.34708 166.65834,151.94152 C 166.65833,151.59152 166.53333,151.3193 166.28334,151.12485 C 166.11111,150.99152 165.69444,150.82486 165.03334,150.62485 C 164.07778,150.33041 163.43889,150.08041 163.11667,149.87485 C 162.79445,149.6693 162.54445,149.3943 162.36667,149.04985 C 162.18889,148.70541 162.1,148.31375 162.1,147.87485 C 162.1,147.11931 162.34167,146.50542 162.825,146.03319 C 163.30833,145.56097 163.97778,145.32486 164.83334,145.32485 C 165.37222,145.32486 165.84583,145.42208 166.25417,145.61652 C 166.6625,145.81097 166.975,146.07208 167.19167,146.39985 C 167.40833,146.72764 167.55833,147.19708 167.64167,147.80819 L 166.44167,148.00819 C 166.33055,147.04153 165.80555,146.55819 164.86667,146.55819 C 164.33333,146.55819 163.93611,146.66514 163.675,146.87902 C 163.41389,147.09292 163.28333,147.36653 163.28334,147.69985 C 163.28333,148.02764 163.40833,148.28597 163.65834,148.47485 C 163.80833,148.58597 164.25278,148.76375 164.99167,149.00819 C 166.00833,149.33597 166.66666,149.59569 166.96667,149.78735 C 167.26666,149.97902 167.5,150.24014 167.66667,150.57069 C 167.83333,150.90125 167.91666,151.2943 167.91667,151.74985 C 167.91666,152.5943 167.64861,153.27763 167.1125,153.79985 C 166.57639,154.32208 165.84444,154.58319 164.91667,154.58319 C 163.17778,154.58319 162.16945,153.63319 161.89167,151.73319 L 161.89167,151.73319 z M 171.95,152.39985 L 171.95,149.04985 L 169.225,149.04985 L 169.225,147.64985 L 171.95,147.64985 L 171.95,144.32485 L 173.11667,144.32485 L 173.11667,147.64985 L 175.84167,147.64985 L 175.84167,149.04985 L 173.11667,149.04985 L 173.11667,152.39985 L 171.95,152.39985 z M 180.08333,156.13319 L 180.08333,154.63319 C 179.41666,154.52763 178.89166,154.34013 178.50833,154.07069 C 178.125,153.80124 177.80555,153.40541 177.55,152.88319 C 177.29444,152.36097 177.14444,151.72763 177.1,150.98319 L 178.34167,150.69985 C 178.44722,151.59986 178.65972,152.2568 178.97917,152.67069 C 179.29861,153.08458 179.66666,153.31652 180.08333,153.36652 L 180.08333,148.59152 C 179.53889,148.4693 179,148.21375 178.46667,147.82485 C 178.11111,147.5693 177.83055,147.21236 177.625,146.75402 C 177.41944,146.29569 177.31667,145.76097 177.31667,145.14985 C 177.31667,144.52209 177.43333,143.95125 177.66667,143.43735 C 177.9,142.92348 178.20555,142.5332 178.58333,142.26652 C 178.96111,141.99987 179.46111,141.82764 180.08333,141.74985 L 180.08333,141.03319 L 180.81667,141.03319 L 180.81667,141.74985 C 181.33333,141.81098 181.76805,141.9582 182.12083,142.19152 C 182.47361,142.42487 182.76944,142.75403 183.00833,143.17902 C 183.24722,143.60403 183.40555,144.13042 183.48333,144.75819 L 182.21667,144.99152 C 182.07777,143.87486 181.61111,143.21653 180.81667,143.01652 L 180.81667,147.34152 C 181.37777,147.51375 181.73888,147.63875 181.9,147.71652 C 182.26666,147.88875 182.58472,148.11653 182.85417,148.39985 C 183.1236,148.68319 183.33749,149.03736 183.49583,149.46235 C 183.65416,149.88736 183.73333,150.36652 183.73333,150.89985 C 183.73333,151.98319 183.45277,152.86097 182.89167,153.53319 C 182.33055,154.20541 181.63888,154.56652 180.81667,154.61652 L 180.81667,156.13319 L 180.08333,156.13319 z M 180.08333,142.99985 C 179.61666,143.08875 179.24305,143.31653 178.9625,143.68319 C 178.68194,144.04986 178.54166,144.51931 178.54167,145.09152 C 178.54166,146.08042 179.05555,146.76653 180.08333,147.14985 L 180.08333,142.99985 z M 180.81667,153.36652 C 181.27777,153.2943 181.66805,153.04847 181.9875,152.62902 C 182.30694,152.20958 182.46666,151.65819 182.46667,150.97485 C 182.46666,150.42486 182.34861,149.98597 182.1125,149.65819 C 181.87638,149.33041 181.44444,149.0443 180.81667,148.79985 L 180.81667,153.36652 z M 184.425,154.58319 L 187.325,141.94985 L 188.31667,141.94985 L 185.40834,154.58319 L 184.425,154.58319 z M 189.59168,154.37485 L 189.59168,152.66652 L 190.99168,152.66652 L 190.99168,154.37485 C 190.99168,155.03596 190.89445,155.55402 190.70001,155.92902 C 190.50557,156.30402 190.22223,156.59152 189.85001,156.79152 L 189.50835,156.14985 C 189.75834,156.01652 189.94723,155.81791 190.07501,155.55402 C 190.20279,155.29013 190.27223,154.89708 190.28335,154.37485 L 189.59168,154.37485 z M 197.1,146.48319 L 196.75833,144.15819 L 196.75833,142.15819 L 198.15833,142.15819 L 198.15833,144.15819 L 197.85,146.48319 L 197.1,146.48319 z M 199.35833,146.48319 L 199.03333,144.15819 L 199.03333,142.15819 L 200.43333,142.15819 L 200.43333,144.15819 L 200.1,146.48319 L 199.35833,146.48319 z M 202.06667,146.48319 L 201.72501,144.15819 L 201.72501,142.15819 L 203.12501,142.15819 L 203.12501,144.15819 L 202.81667,146.48319 L 202.06667,146.48319 z M 204.32501,146.48319 L 204.00001,144.15819 L 204.00001,142.15819 L 205.40001,142.15819 L 205.40001,144.15819 L 205.06668,146.48319 L 204.32501,146.48319 z M 207.45,157.96652 L 206.56667,157.96652 C 207.92778,155.2943 208.60833,152.62486 208.60833,149.95819 C 208.60833,149.08597 208.54028,148.2193 208.40417,147.35819 C 208.26805,146.49708 208.08333,145.70681 207.85,144.98735 C 207.61667,144.26792 207.18889,143.25542 206.56667,141.94985 L 207.45,141.94985 C 209.06666,144.57764 209.875,147.24153 209.875,149.94152 C 209.875,151.49152 209.63333,152.96513 209.15,154.36235 C 208.66667,155.75957 208.1,156.96096 207.45,157.96652 L 207.45,157.96652 z M 211.99167,147.23319 L 211.99167,145.52485 L 213.39167,145.52485 L 213.39167,147.23319 L 211.99167,147.23319 z M 211.99167,154.37485 L 211.99167,152.66652 L 213.39167,152.66652 L 213.39167,154.37485 C 213.39167,155.03596 213.29445,155.55402 213.10001,155.92902 C 212.90556,156.30402 212.62223,156.59152 212.25001,156.79152 L 211.90834,156.14985 C 212.15834,156.01652 212.34723,155.81791 212.47501,155.55402 C 212.60278,155.29013 212.67223,154.89708 212.68334,154.37485 L 211.99167,154.37485 z M 52.691667,170.60818 L 52.691667,171.96652 C 52.374996,171.97763 52.106941,172.07763 51.8875,172.26652 C 51.668053,172.45541 51.512497,172.73457 51.420834,173.10402 C 51.329164,173.47346 51.280553,174.17207 51.275,175.19985 C 51.269442,176.2054 51.249998,176.87207 51.216667,177.19985 C 51.155553,177.73874 51.016664,178.18874 50.8,178.54985 C 50.644443,178.81651 50.436109,179.00818 50.175,179.12485 C 49.913888,179.24151 49.56111,179.29985 49.116667,179.29985 L 48.733334,179.29985 L 48.733334,177.99152 L 48.95,177.99152 C 49.41111,177.99151 49.720832,177.88874 49.879167,177.68318 C 50.037499,177.47762 50.116665,177.00818 50.116667,176.27485 C 50.116665,174.73596 50.152776,173.75541 50.225,173.33318 C 50.319443,172.78318 50.476387,172.34985 50.695834,172.03318 C 50.915276,171.71652 51.199998,171.4693 51.55,171.29152 C 51.027776,170.98596 50.658331,170.58319 50.441667,170.08318 C 50.224998,169.58319 50.116665,168.73597 50.116667,167.54151 C 50.116665,166.31375 50.099999,165.5943 50.066667,165.38318 C 50.01111,165.08875 49.908332,164.88319 49.758334,164.76651 C 49.608332,164.64986 49.338888,164.59153 48.95,164.59151 L 48.733334,164.59151 L 48.733334,163.28318 L 49.116667,163.28318 C 49.594444,163.28319 49.952777,163.34292 50.191667,163.46235 C 50.430554,163.5818 50.624998,163.75542 50.775,163.98318 C 50.980553,164.2943 51.113887,164.65819 51.175,165.07485 C 51.236109,165.49153 51.269442,166.26097 51.275,167.38318 C 51.280553,168.41097 51.330553,169.11097 51.425,169.48318 C 51.519442,169.85541 51.674997,170.13458 51.891667,170.32068 C 52.10833,170.5068 52.374996,170.60263 52.691667,170.60818 L 52.691667,170.60818 z "
   id="flowRoot2264" /><text
   xml:space="preserve"
   style="font-size:51.20000076px;font-style:normal;font-variant:normal;font-weight:normal;font-stretch:normal;text-align:start;line-height:100%;writing-mode:lr-tb;text-anchor:start;fill:#12b8e1;fill-opacity:1;stroke:none;stroke-width:1px;stroke-linecap:butt;stroke-linejoin:miter;stroke-opacity:1;font-family:Arial"
   x="166.60316"
   y="219.42857"
   id="text2300"
   sodipodi:linespacing="100%"><tspan
     sodipodi:role="line"
     id="tspan2302"
     x="166.60316"
     y="219.42857">.js</tspan></text>
</g>
</svg>